%TF.GenerationSoftware,KiCad,Pcbnew,8.0.4*%
%TF.CreationDate,2024-08-28T21:50:11+12:00*%
%TF.ProjectId,OperationBaldr,4f706572-6174-4696-9f6e-42616c64722e,0.1.1*%
%TF.SameCoordinates,Original*%
%TF.FileFunction,Drillmap*%
%TF.FilePolarity,Positive*%
%FSLAX45Y45*%
G04 Gerber Fmt 4.5, Leading zero omitted, Abs format (unit mm)*
G04 Created by KiCad (PCBNEW 8.0.4) date 2024-08-28 21:50:11*
%MOMM*%
%LPD*%
G01*
G04 APERTURE LIST*
%ADD10C,0.050000*%
%ADD11C,0.200000*%
%ADD12C,0.100000*%
G04 APERTURE END LIST*
D10*
X18700000Y-4200000D02*
G75*
G02*
X19100000Y-4600000I0J-400000D01*
G01*
X18700000Y-4200000D02*
X11500000Y-4200000D01*
X11100000Y-4600000D02*
G75*
G02*
X11500000Y-4200000I400000J0D01*
G01*
X11500000Y-14200000D02*
X18700000Y-14200000D01*
X11500000Y-14200000D02*
G75*
G02*
X11100000Y-13800000I0J400000D01*
G01*
X19100000Y-13800000D02*
G75*
G02*
X18700000Y-14200000I-400000J0D01*
G01*
X11100000Y-4600000D02*
X11100000Y-13800000D01*
X19100000Y-13800000D02*
X19100000Y-4600000D01*
D11*
D12*
X11725000Y-13365000D02*
X11755000Y-13395000D01*
X11755000Y-13365000D02*
X11725000Y-13395000D01*
X12185000Y-12705000D02*
X12215000Y-12735000D01*
X12215000Y-12705000D02*
X12185000Y-12735000D01*
X12185000Y-12885000D02*
X12215000Y-12915000D01*
X12215000Y-12885000D02*
X12185000Y-12915000D01*
X12685000Y-12705000D02*
X12715000Y-12735000D01*
X12715000Y-12705000D02*
X12685000Y-12735000D01*
X12685000Y-12885000D02*
X12715000Y-12915000D01*
X12715000Y-12885000D02*
X12685000Y-12915000D01*
X12945000Y-12705000D02*
X12975000Y-12735000D01*
X12975000Y-12705000D02*
X12945000Y-12735000D01*
X12945000Y-12885000D02*
X12975000Y-12915000D01*
X12975000Y-12885000D02*
X12945000Y-12915000D01*
X13205000Y-12685000D02*
X13235000Y-12715000D01*
X13235000Y-12685000D02*
X13205000Y-12715000D01*
X13205000Y-12885000D02*
X13235000Y-12915000D01*
X13235000Y-12885000D02*
X13205000Y-12915000D01*
X13761000Y-10896000D02*
X13791000Y-10926000D01*
X13791000Y-10896000D02*
X13761000Y-10926000D01*
X13886000Y-11023000D02*
X13916000Y-11053000D01*
X13916000Y-11023000D02*
X13886000Y-11053000D01*
X14245000Y-13385000D02*
X14275000Y-13415000D01*
X14275000Y-13385000D02*
X14245000Y-13415000D01*
X14245000Y-13605000D02*
X14275000Y-13635000D01*
X14275000Y-13605000D02*
X14245000Y-13635000D01*
X14415000Y-13025000D02*
X14445000Y-13055000D01*
X14445000Y-13025000D02*
X14415000Y-13055000D01*
X14585000Y-13025000D02*
X14615000Y-13055000D01*
X14615000Y-13025000D02*
X14585000Y-13055000D01*
X15505000Y-13545000D02*
X15535000Y-13575000D01*
X15535000Y-13545000D02*
X15505000Y-13575000D01*
X15755000Y-12695000D02*
X15785000Y-12725000D01*
X15785000Y-12695000D02*
X15755000Y-12725000D01*
X15755000Y-12885000D02*
X15785000Y-12915000D01*
X15785000Y-12885000D02*
X15755000Y-12915000D01*
X16269000Y-11091000D02*
X16299000Y-11121000D01*
X16299000Y-11091000D02*
X16269000Y-11121000D01*
X16395000Y-10984000D02*
X16425000Y-11014000D01*
X16425000Y-10984000D02*
X16395000Y-11014000D01*
X16403000Y-11233000D02*
X16433000Y-11263000D01*
X16433000Y-11233000D02*
X16403000Y-11263000D01*
X16513033Y-11105033D02*
X16543033Y-11135033D01*
X16543033Y-11105033D02*
X16513033Y-11135033D01*
X16915000Y-12995000D02*
X16945000Y-13025000D01*
X16945000Y-12995000D02*
X16915000Y-13025000D01*
X17125000Y-12995000D02*
X17155000Y-13025000D01*
X17155000Y-12995000D02*
X17125000Y-13025000D01*
X18275000Y-12695000D02*
X18305000Y-12725000D01*
X18305000Y-12695000D02*
X18275000Y-12725000D01*
X18275000Y-12875000D02*
X18305000Y-12905000D01*
X18305000Y-12875000D02*
X18275000Y-12905000D01*
X11585000Y-9140000D02*
G75*
G02*
X11535000Y-9140000I-25000J0D01*
G01*
X11535000Y-9140000D02*
G75*
G02*
X11585000Y-9140000I25000J0D01*
G01*
X11585000Y-9730000D02*
G75*
G02*
X11535000Y-9730000I-25000J0D01*
G01*
X11535000Y-9730000D02*
G75*
G02*
X11585000Y-9730000I25000J0D01*
G01*
X11555500Y-10680000D02*
X11555500Y-10760000D01*
X11515500Y-10720000D02*
X11595500Y-10720000D01*
X11683000Y-11118000D02*
X11683000Y-11198000D01*
X11643000Y-11158000D02*
X11723000Y-11158000D01*
X11683000Y-11880000D02*
X11683000Y-11960000D01*
X11643000Y-11920000D02*
X11723000Y-11920000D01*
X11683000Y-12380000D02*
X11683000Y-12460000D01*
X11643000Y-12420000D02*
X11723000Y-12420000D01*
X11683000Y-13142000D02*
X11683000Y-13222000D01*
X11643000Y-13182000D02*
X11723000Y-13182000D01*
X11809500Y-10680000D02*
X11809500Y-10760000D01*
X11769500Y-10720000D02*
X11849500Y-10720000D01*
X11937000Y-11118000D02*
X11937000Y-11198000D01*
X11897000Y-11158000D02*
X11977000Y-11158000D01*
X11937000Y-11880000D02*
X11937000Y-11960000D01*
X11897000Y-11920000D02*
X11977000Y-11920000D01*
X11937000Y-12380000D02*
X11937000Y-12460000D01*
X11897000Y-12420000D02*
X11977000Y-12420000D01*
X11937000Y-13142000D02*
X11937000Y-13222000D01*
X11897000Y-13182000D02*
X11977000Y-13182000D01*
X12063500Y-10680000D02*
X12063500Y-10760000D01*
X12023500Y-10720000D02*
X12103500Y-10720000D01*
X12191000Y-11118000D02*
X12191000Y-11198000D01*
X12151000Y-11158000D02*
X12231000Y-11158000D01*
X12191000Y-11880000D02*
X12191000Y-11960000D01*
X12151000Y-11920000D02*
X12231000Y-11920000D01*
X12191000Y-12380000D02*
X12191000Y-12460000D01*
X12151000Y-12420000D02*
X12231000Y-12420000D01*
X12191000Y-13142000D02*
X12191000Y-13222000D01*
X12151000Y-13182000D02*
X12231000Y-13182000D01*
X12317500Y-10680000D02*
X12317500Y-10760000D01*
X12277500Y-10720000D02*
X12357500Y-10720000D01*
X12445000Y-11118000D02*
X12445000Y-11198000D01*
X12405000Y-11158000D02*
X12485000Y-11158000D01*
X12445000Y-11880000D02*
X12445000Y-11960000D01*
X12405000Y-11920000D02*
X12485000Y-11920000D01*
X12445000Y-12380000D02*
X12445000Y-12460000D01*
X12405000Y-12420000D02*
X12485000Y-12420000D01*
X12445000Y-13142000D02*
X12445000Y-13222000D01*
X12405000Y-13182000D02*
X12485000Y-13182000D01*
X12540000Y-6931000D02*
X12540000Y-7011000D01*
X12500000Y-6971000D02*
X12580000Y-6971000D01*
X12571500Y-10680000D02*
X12571500Y-10760000D01*
X12531500Y-10720000D02*
X12611500Y-10720000D01*
X12699000Y-11118000D02*
X12699000Y-11198000D01*
X12659000Y-11158000D02*
X12739000Y-11158000D01*
X12699000Y-11880000D02*
X12699000Y-11960000D01*
X12659000Y-11920000D02*
X12739000Y-11920000D01*
X12699000Y-12380000D02*
X12699000Y-12460000D01*
X12659000Y-12420000D02*
X12739000Y-12420000D01*
X12699000Y-13142000D02*
X12699000Y-13222000D01*
X12659000Y-13182000D02*
X12739000Y-13182000D01*
X12825500Y-10680000D02*
X12825500Y-10760000D01*
X12785500Y-10720000D02*
X12865500Y-10720000D01*
X12953000Y-11118000D02*
X12953000Y-11198000D01*
X12913000Y-11158000D02*
X12993000Y-11158000D01*
X12953000Y-11880000D02*
X12953000Y-11960000D01*
X12913000Y-11920000D02*
X12993000Y-11920000D01*
X12953000Y-12380000D02*
X12953000Y-12460000D01*
X12913000Y-12420000D02*
X12993000Y-12420000D01*
X12953000Y-13142000D02*
X12953000Y-13222000D01*
X12913000Y-13182000D02*
X12993000Y-13182000D01*
X13079500Y-10680000D02*
X13079500Y-10760000D01*
X13039500Y-10720000D02*
X13119500Y-10720000D01*
X13207000Y-11118000D02*
X13207000Y-11198000D01*
X13167000Y-11158000D02*
X13247000Y-11158000D01*
X13207000Y-11880000D02*
X13207000Y-11960000D01*
X13167000Y-11920000D02*
X13247000Y-11920000D01*
X13207000Y-12380000D02*
X13207000Y-12460000D01*
X13167000Y-12420000D02*
X13247000Y-12420000D01*
X13207000Y-13142000D02*
X13207000Y-13222000D01*
X13167000Y-13182000D02*
X13247000Y-13182000D01*
X13333500Y-10680000D02*
X13333500Y-10760000D01*
X13293500Y-10720000D02*
X13373500Y-10720000D01*
X13461000Y-11118000D02*
X13461000Y-11198000D01*
X13421000Y-11158000D02*
X13501000Y-11158000D01*
X13461000Y-11880000D02*
X13461000Y-11960000D01*
X13421000Y-11920000D02*
X13501000Y-11920000D01*
X13461000Y-12380000D02*
X13461000Y-12460000D01*
X13421000Y-12420000D02*
X13501000Y-12420000D01*
X13461000Y-13142000D02*
X13461000Y-13222000D01*
X13421000Y-13182000D02*
X13501000Y-13182000D01*
X13556000Y-6931000D02*
X13556000Y-7011000D01*
X13516000Y-6971000D02*
X13596000Y-6971000D01*
X13587500Y-10680000D02*
X13587500Y-10760000D01*
X13547500Y-10720000D02*
X13627500Y-10720000D01*
X14095500Y-10680000D02*
X14095500Y-10760000D01*
X14055500Y-10720000D02*
X14135500Y-10720000D01*
X14223000Y-11118000D02*
X14223000Y-11198000D01*
X14183000Y-11158000D02*
X14263000Y-11158000D01*
X14223000Y-11880000D02*
X14223000Y-11960000D01*
X14183000Y-11920000D02*
X14263000Y-11920000D01*
X14256000Y-12400000D02*
X14256000Y-12480000D01*
X14216000Y-12440000D02*
X14296000Y-12440000D01*
X14256000Y-13162000D02*
X14256000Y-13242000D01*
X14216000Y-13202000D02*
X14296000Y-13202000D01*
X14349500Y-10680000D02*
X14349500Y-10760000D01*
X14309500Y-10720000D02*
X14389500Y-10720000D01*
X14477000Y-11118000D02*
X14477000Y-11198000D01*
X14437000Y-11158000D02*
X14517000Y-11158000D01*
X14477000Y-11880000D02*
X14477000Y-11960000D01*
X14437000Y-11920000D02*
X14517000Y-11920000D01*
X14510000Y-12400000D02*
X14510000Y-12480000D01*
X14470000Y-12440000D02*
X14550000Y-12440000D01*
X14510000Y-13162000D02*
X14510000Y-13242000D01*
X14470000Y-13202000D02*
X14550000Y-13202000D01*
X14603500Y-10680000D02*
X14603500Y-10760000D01*
X14563500Y-10720000D02*
X14643500Y-10720000D01*
X14731000Y-11118000D02*
X14731000Y-11198000D01*
X14691000Y-11158000D02*
X14771000Y-11158000D01*
X14731000Y-11880000D02*
X14731000Y-11960000D01*
X14691000Y-11920000D02*
X14771000Y-11920000D01*
X14764000Y-12400000D02*
X14764000Y-12480000D01*
X14724000Y-12440000D02*
X14804000Y-12440000D01*
X14764000Y-13162000D02*
X14764000Y-13242000D01*
X14724000Y-13202000D02*
X14804000Y-13202000D01*
X14857500Y-10680000D02*
X14857500Y-10760000D01*
X14817500Y-10720000D02*
X14897500Y-10720000D01*
X14985000Y-11118000D02*
X14985000Y-11198000D01*
X14945000Y-11158000D02*
X15025000Y-11158000D01*
X14985000Y-11880000D02*
X14985000Y-11960000D01*
X14945000Y-11920000D02*
X15025000Y-11920000D01*
X15018000Y-12400000D02*
X15018000Y-12480000D01*
X14978000Y-12440000D02*
X15058000Y-12440000D01*
X15018000Y-13162000D02*
X15018000Y-13242000D01*
X14978000Y-13202000D02*
X15058000Y-13202000D01*
X15111500Y-10680000D02*
X15111500Y-10760000D01*
X15071500Y-10720000D02*
X15151500Y-10720000D01*
X15239000Y-11118000D02*
X15239000Y-11198000D01*
X15199000Y-11158000D02*
X15279000Y-11158000D01*
X15239000Y-11880000D02*
X15239000Y-11960000D01*
X15199000Y-11920000D02*
X15279000Y-11920000D01*
X15272000Y-12400000D02*
X15272000Y-12480000D01*
X15232000Y-12440000D02*
X15312000Y-12440000D01*
X15272000Y-13162000D02*
X15272000Y-13242000D01*
X15232000Y-13202000D02*
X15312000Y-13202000D01*
X15365500Y-10680000D02*
X15365500Y-10760000D01*
X15325500Y-10720000D02*
X15405500Y-10720000D01*
X15493000Y-11118000D02*
X15493000Y-11198000D01*
X15453000Y-11158000D02*
X15533000Y-11158000D01*
X15493000Y-11880000D02*
X15493000Y-11960000D01*
X15453000Y-11920000D02*
X15533000Y-11920000D01*
X15526000Y-12400000D02*
X15526000Y-12480000D01*
X15486000Y-12440000D02*
X15566000Y-12440000D01*
X15526000Y-13162000D02*
X15526000Y-13242000D01*
X15486000Y-13202000D02*
X15566000Y-13202000D01*
X15619500Y-10680000D02*
X15619500Y-10760000D01*
X15579500Y-10720000D02*
X15659500Y-10720000D01*
X15747000Y-11118000D02*
X15747000Y-11198000D01*
X15707000Y-11158000D02*
X15787000Y-11158000D01*
X15747000Y-11880000D02*
X15747000Y-11960000D01*
X15707000Y-11920000D02*
X15787000Y-11920000D01*
X15780000Y-12400000D02*
X15780000Y-12480000D01*
X15740000Y-12440000D02*
X15820000Y-12440000D01*
X15780000Y-13162000D02*
X15780000Y-13242000D01*
X15740000Y-13202000D02*
X15820000Y-13202000D01*
X15873500Y-10680000D02*
X15873500Y-10760000D01*
X15833500Y-10720000D02*
X15913500Y-10720000D01*
X16001000Y-11118000D02*
X16001000Y-11198000D01*
X15961000Y-11158000D02*
X16041000Y-11158000D01*
X16001000Y-11880000D02*
X16001000Y-11960000D01*
X15961000Y-11920000D02*
X16041000Y-11920000D01*
X16034000Y-12400000D02*
X16034000Y-12480000D01*
X15994000Y-12440000D02*
X16074000Y-12440000D01*
X16034000Y-13162000D02*
X16034000Y-13242000D01*
X15994000Y-13202000D02*
X16074000Y-13202000D01*
X16127500Y-10680000D02*
X16127500Y-10760000D01*
X16087500Y-10720000D02*
X16167500Y-10720000D01*
X16635500Y-10680000D02*
X16635500Y-10760000D01*
X16595500Y-10720000D02*
X16675500Y-10720000D01*
X16763000Y-11118000D02*
X16763000Y-11198000D01*
X16723000Y-11158000D02*
X16803000Y-11158000D01*
X16763000Y-11880000D02*
X16763000Y-11960000D01*
X16723000Y-11920000D02*
X16803000Y-11920000D01*
X16763000Y-12380000D02*
X16763000Y-12460000D01*
X16723000Y-12420000D02*
X16803000Y-12420000D01*
X16763000Y-13142000D02*
X16763000Y-13222000D01*
X16723000Y-13182000D02*
X16803000Y-13182000D01*
X16889500Y-10680000D02*
X16889500Y-10760000D01*
X16849500Y-10720000D02*
X16929500Y-10720000D01*
X17017000Y-11118000D02*
X17017000Y-11198000D01*
X16977000Y-11158000D02*
X17057000Y-11158000D01*
X17017000Y-11880000D02*
X17017000Y-11960000D01*
X16977000Y-11920000D02*
X17057000Y-11920000D01*
X17017000Y-12380000D02*
X17017000Y-12460000D01*
X16977000Y-12420000D02*
X17057000Y-12420000D01*
X17017000Y-13142000D02*
X17017000Y-13222000D01*
X16977000Y-13182000D02*
X17057000Y-13182000D01*
X17143500Y-10680000D02*
X17143500Y-10760000D01*
X17103500Y-10720000D02*
X17183500Y-10720000D01*
X17271000Y-11118000D02*
X17271000Y-11198000D01*
X17231000Y-11158000D02*
X17311000Y-11158000D01*
X17271000Y-11880000D02*
X17271000Y-11960000D01*
X17231000Y-11920000D02*
X17311000Y-11920000D01*
X17271000Y-12380000D02*
X17271000Y-12460000D01*
X17231000Y-12420000D02*
X17311000Y-12420000D01*
X17271000Y-13142000D02*
X17271000Y-13222000D01*
X17231000Y-13182000D02*
X17311000Y-13182000D01*
X17397500Y-10680000D02*
X17397500Y-10760000D01*
X17357500Y-10720000D02*
X17437500Y-10720000D01*
X17525000Y-11118000D02*
X17525000Y-11198000D01*
X17485000Y-11158000D02*
X17565000Y-11158000D01*
X17525000Y-11880000D02*
X17525000Y-11960000D01*
X17485000Y-11920000D02*
X17565000Y-11920000D01*
X17525000Y-12380000D02*
X17525000Y-12460000D01*
X17485000Y-12420000D02*
X17565000Y-12420000D01*
X17525000Y-13142000D02*
X17525000Y-13222000D01*
X17485000Y-13182000D02*
X17565000Y-13182000D01*
X17651500Y-10680000D02*
X17651500Y-10760000D01*
X17611500Y-10720000D02*
X17691500Y-10720000D01*
X17779000Y-11118000D02*
X17779000Y-11198000D01*
X17739000Y-11158000D02*
X17819000Y-11158000D01*
X17779000Y-11880000D02*
X17779000Y-11960000D01*
X17739000Y-11920000D02*
X17819000Y-11920000D01*
X17779000Y-12380000D02*
X17779000Y-12460000D01*
X17739000Y-12420000D02*
X17819000Y-12420000D01*
X17779000Y-13142000D02*
X17779000Y-13222000D01*
X17739000Y-13182000D02*
X17819000Y-13182000D01*
X17905500Y-10680000D02*
X17905500Y-10760000D01*
X17865500Y-10720000D02*
X17945500Y-10720000D01*
X18033000Y-11118000D02*
X18033000Y-11198000D01*
X17993000Y-11158000D02*
X18073000Y-11158000D01*
X18033000Y-11880000D02*
X18033000Y-11960000D01*
X17993000Y-11920000D02*
X18073000Y-11920000D01*
X18033000Y-12380000D02*
X18033000Y-12460000D01*
X17993000Y-12420000D02*
X18073000Y-12420000D01*
X18033000Y-13142000D02*
X18033000Y-13222000D01*
X17993000Y-13182000D02*
X18073000Y-13182000D01*
X18159500Y-10680000D02*
X18159500Y-10760000D01*
X18119500Y-10720000D02*
X18199500Y-10720000D01*
X18287000Y-11118000D02*
X18287000Y-11198000D01*
X18247000Y-11158000D02*
X18327000Y-11158000D01*
X18287000Y-11880000D02*
X18287000Y-11960000D01*
X18247000Y-11920000D02*
X18327000Y-11920000D01*
X18287000Y-12380000D02*
X18287000Y-12460000D01*
X18247000Y-12420000D02*
X18327000Y-12420000D01*
X18287000Y-13142000D02*
X18287000Y-13222000D01*
X18247000Y-13182000D02*
X18327000Y-13182000D01*
X18413500Y-10680000D02*
X18413500Y-10760000D01*
X18373500Y-10720000D02*
X18453500Y-10720000D01*
X18541000Y-11118000D02*
X18541000Y-11198000D01*
X18501000Y-11158000D02*
X18581000Y-11158000D01*
X18541000Y-11880000D02*
X18541000Y-11960000D01*
X18501000Y-11920000D02*
X18581000Y-11920000D01*
X18541000Y-12380000D02*
X18541000Y-12460000D01*
X18501000Y-12420000D02*
X18581000Y-12420000D01*
X18541000Y-13142000D02*
X18541000Y-13222000D01*
X18501000Y-13182000D02*
X18581000Y-13182000D01*
X18667500Y-10680000D02*
X18667500Y-10760000D01*
X18627500Y-10720000D02*
X18707500Y-10720000D01*
X11356856Y-5266356D02*
X11356856Y-5195644D01*
X11286144Y-5195644D01*
X11286144Y-5266356D01*
X11356856Y-5266356D01*
X11860856Y-7056356D02*
X11860856Y-6985644D01*
X11790144Y-6985644D01*
X11790144Y-7056356D01*
X11860856Y-7056356D01*
X11973356Y-9877856D02*
X11973356Y-9807144D01*
X11902644Y-9807144D01*
X11902644Y-9877856D01*
X11973356Y-9877856D01*
X12195856Y-5266356D02*
X12195856Y-5195644D01*
X12125144Y-5195644D01*
X12125144Y-5266356D01*
X12195856Y-5266356D01*
X12195856Y-7056356D02*
X12195856Y-6985644D01*
X12125144Y-6985644D01*
X12125144Y-7056356D01*
X12195856Y-7056356D01*
X12227356Y-9877856D02*
X12227356Y-9807144D01*
X12156644Y-9807144D01*
X12156644Y-9877856D01*
X12227356Y-9877856D01*
X12481356Y-9877856D02*
X12481356Y-9807144D01*
X12410644Y-9807144D01*
X12410644Y-9877856D01*
X12481356Y-9877856D01*
X12545356Y-5468356D02*
X12545356Y-5397644D01*
X12474644Y-5397644D01*
X12474644Y-5468356D01*
X12545356Y-5468356D01*
X12735356Y-9877856D02*
X12735356Y-9807144D01*
X12664644Y-9807144D01*
X12664644Y-9877856D01*
X12735356Y-9877856D01*
X12799356Y-5468356D02*
X12799356Y-5397644D01*
X12728644Y-5397644D01*
X12728644Y-5468356D01*
X12799356Y-5468356D01*
X12989356Y-9877856D02*
X12989356Y-9807144D01*
X12918644Y-9807144D01*
X12918644Y-9877856D01*
X12989356Y-9877856D01*
X13053356Y-5468356D02*
X13053356Y-5397644D01*
X12982644Y-5397644D01*
X12982644Y-5468356D01*
X13053356Y-5468356D01*
X13243356Y-9877856D02*
X13243356Y-9807144D01*
X13172644Y-9807144D01*
X13172644Y-9877856D01*
X13243356Y-9877856D01*
X13307356Y-5468356D02*
X13307356Y-5397644D01*
X13236644Y-5397644D01*
X13236644Y-5468356D01*
X13307356Y-5468356D01*
X13497356Y-9877856D02*
X13497356Y-9807144D01*
X13426644Y-9807144D01*
X13426644Y-9877856D01*
X13497356Y-9877856D01*
X13561356Y-5468356D02*
X13561356Y-5397644D01*
X13490644Y-5397644D01*
X13490644Y-5468356D01*
X13561356Y-5468356D01*
X13751356Y-9877856D02*
X13751356Y-9807144D01*
X13680644Y-9807144D01*
X13680644Y-9877856D01*
X13751356Y-9877856D01*
X14005356Y-9877856D02*
X14005356Y-9807144D01*
X13934644Y-9807144D01*
X13934644Y-9877856D01*
X14005356Y-9877856D01*
X14083356Y-5400356D02*
X14083356Y-5329644D01*
X14012644Y-5329644D01*
X14012644Y-5400356D01*
X14083356Y-5400356D01*
X14083356Y-6924356D02*
X14083356Y-6853644D01*
X14012644Y-6853644D01*
X14012644Y-6924356D01*
X14083356Y-6924356D01*
X14130856Y-5780356D02*
X14130856Y-5709644D01*
X14060144Y-5709644D01*
X14060144Y-5780356D01*
X14130856Y-5780356D01*
X14130856Y-6034356D02*
X14130856Y-5963644D01*
X14060144Y-5963644D01*
X14060144Y-6034356D01*
X14130856Y-6034356D01*
X14130856Y-6288356D02*
X14130856Y-6217644D01*
X14060144Y-6217644D01*
X14060144Y-6288356D01*
X14130856Y-6288356D01*
X14130856Y-6542356D02*
X14130856Y-6471644D01*
X14060144Y-6471644D01*
X14060144Y-6542356D01*
X14130856Y-6542356D01*
X14259356Y-9877856D02*
X14259356Y-9807144D01*
X14188644Y-9807144D01*
X14188644Y-9877856D01*
X14259356Y-9877856D01*
X14337356Y-5400356D02*
X14337356Y-5329644D01*
X14266644Y-5329644D01*
X14266644Y-5400356D01*
X14337356Y-5400356D01*
X14337356Y-6924356D02*
X14337356Y-6853644D01*
X14266644Y-6853644D01*
X14266644Y-6924356D01*
X14337356Y-6924356D01*
X14464356Y-5781356D02*
X14464356Y-5710644D01*
X14393644Y-5710644D01*
X14393644Y-5781356D01*
X14464356Y-5781356D01*
X14464356Y-6035356D02*
X14464356Y-5964644D01*
X14393644Y-5964644D01*
X14393644Y-6035356D01*
X14464356Y-6035356D01*
X14464356Y-6289356D02*
X14464356Y-6218644D01*
X14393644Y-6218644D01*
X14393644Y-6289356D01*
X14464356Y-6289356D01*
X14464356Y-6543356D02*
X14464356Y-6472644D01*
X14393644Y-6472644D01*
X14393644Y-6543356D01*
X14464356Y-6543356D01*
X14513356Y-9877856D02*
X14513356Y-9807144D01*
X14442644Y-9807144D01*
X14442644Y-9877856D01*
X14513356Y-9877856D01*
X14591356Y-5400356D02*
X14591356Y-5329644D01*
X14520644Y-5329644D01*
X14520644Y-5400356D01*
X14591356Y-5400356D01*
X14591356Y-6924356D02*
X14591356Y-6853644D01*
X14520644Y-6853644D01*
X14520644Y-6924356D01*
X14591356Y-6924356D01*
X14767356Y-9877856D02*
X14767356Y-9807144D01*
X14696644Y-9807144D01*
X14696644Y-9877856D01*
X14767356Y-9877856D01*
X14845356Y-5400356D02*
X14845356Y-5329644D01*
X14774644Y-5329644D01*
X14774644Y-5400356D01*
X14845356Y-5400356D01*
X14845356Y-6924356D02*
X14845356Y-6853644D01*
X14774644Y-6853644D01*
X14774644Y-6924356D01*
X14845356Y-6924356D01*
X15021356Y-9877856D02*
X15021356Y-9807144D01*
X14950644Y-9807144D01*
X14950644Y-9877856D01*
X15021356Y-9877856D01*
X15099356Y-5400356D02*
X15099356Y-5329644D01*
X15028644Y-5329644D01*
X15028644Y-5400356D01*
X15099356Y-5400356D01*
X15099356Y-6924356D02*
X15099356Y-6853644D01*
X15028644Y-6853644D01*
X15028644Y-6924356D01*
X15099356Y-6924356D01*
X15275356Y-9877856D02*
X15275356Y-9807144D01*
X15204644Y-9807144D01*
X15204644Y-9877856D01*
X15275356Y-9877856D01*
X15353356Y-5400356D02*
X15353356Y-5329644D01*
X15282644Y-5329644D01*
X15282644Y-5400356D01*
X15353356Y-5400356D01*
X15353356Y-6924356D02*
X15353356Y-6853644D01*
X15282644Y-6853644D01*
X15282644Y-6924356D01*
X15353356Y-6924356D01*
X15529356Y-9877856D02*
X15529356Y-9807144D01*
X15458644Y-9807144D01*
X15458644Y-9877856D01*
X15529356Y-9877856D01*
X15607356Y-5400356D02*
X15607356Y-5329644D01*
X15536644Y-5329644D01*
X15536644Y-5400356D01*
X15607356Y-5400356D01*
X15607356Y-6924356D02*
X15607356Y-6853644D01*
X15536644Y-6853644D01*
X15536644Y-6924356D01*
X15607356Y-6924356D01*
X15783356Y-9877856D02*
X15783356Y-9807144D01*
X15712644Y-9807144D01*
X15712644Y-9877856D01*
X15783356Y-9877856D01*
X15859356Y-4906356D02*
X15859356Y-4835644D01*
X15788644Y-4835644D01*
X15788644Y-4906356D01*
X15859356Y-4906356D01*
X15861356Y-5400356D02*
X15861356Y-5329644D01*
X15790644Y-5329644D01*
X15790644Y-5400356D01*
X15861356Y-5400356D01*
X15861356Y-6924356D02*
X15861356Y-6853644D01*
X15790644Y-6853644D01*
X15790644Y-6924356D01*
X15861356Y-6924356D01*
X16037356Y-9877856D02*
X16037356Y-9807144D01*
X15966644Y-9807144D01*
X15966644Y-9877856D01*
X16037356Y-9877856D01*
X16113356Y-4906356D02*
X16113356Y-4835644D01*
X16042644Y-4835644D01*
X16042644Y-4906356D01*
X16113356Y-4906356D01*
X16115356Y-5400356D02*
X16115356Y-5329644D01*
X16044644Y-5329644D01*
X16044644Y-5400356D01*
X16115356Y-5400356D01*
X16115356Y-6924356D02*
X16115356Y-6853644D01*
X16044644Y-6853644D01*
X16044644Y-6924356D01*
X16115356Y-6924356D01*
X16291356Y-9877856D02*
X16291356Y-9807144D01*
X16220644Y-9807144D01*
X16220644Y-9877856D01*
X16291356Y-9877856D01*
X16367356Y-4906356D02*
X16367356Y-4835644D01*
X16296644Y-4835644D01*
X16296644Y-4906356D01*
X16367356Y-4906356D01*
X16369356Y-5400356D02*
X16369356Y-5329644D01*
X16298644Y-5329644D01*
X16298644Y-5400356D01*
X16369356Y-5400356D01*
X16369356Y-6924356D02*
X16369356Y-6853644D01*
X16298644Y-6853644D01*
X16298644Y-6924356D01*
X16369356Y-6924356D01*
X16545356Y-9877856D02*
X16545356Y-9807144D01*
X16474644Y-9807144D01*
X16474644Y-9877856D01*
X16545356Y-9877856D01*
X16621356Y-4906356D02*
X16621356Y-4835644D01*
X16550644Y-4835644D01*
X16550644Y-4906356D01*
X16621356Y-4906356D01*
X16623356Y-5400356D02*
X16623356Y-5329644D01*
X16552644Y-5329644D01*
X16552644Y-5400356D01*
X16623356Y-5400356D01*
X16623356Y-6924356D02*
X16623356Y-6853644D01*
X16552644Y-6853644D01*
X16552644Y-6924356D01*
X16623356Y-6924356D01*
X16799356Y-9877856D02*
X16799356Y-9807144D01*
X16728644Y-9807144D01*
X16728644Y-9877856D01*
X16799356Y-9877856D01*
X16875356Y-4906356D02*
X16875356Y-4835644D01*
X16804644Y-4835644D01*
X16804644Y-4906356D01*
X16875356Y-4906356D01*
X16877356Y-5400356D02*
X16877356Y-5329644D01*
X16806644Y-5329644D01*
X16806644Y-5400356D01*
X16877356Y-5400356D01*
X16877356Y-6924356D02*
X16877356Y-6853644D01*
X16806644Y-6853644D01*
X16806644Y-6924356D01*
X16877356Y-6924356D01*
X17053356Y-9877856D02*
X17053356Y-9807144D01*
X16982644Y-9807144D01*
X16982644Y-9877856D01*
X17053356Y-9877856D01*
X17129356Y-4906356D02*
X17129356Y-4835644D01*
X17058644Y-4835644D01*
X17058644Y-4906356D01*
X17129356Y-4906356D01*
X17131356Y-5400356D02*
X17131356Y-5329644D01*
X17060644Y-5329644D01*
X17060644Y-5400356D01*
X17131356Y-5400356D01*
X17131356Y-6924356D02*
X17131356Y-6853644D01*
X17060644Y-6853644D01*
X17060644Y-6924356D01*
X17131356Y-6924356D01*
X17307356Y-9877856D02*
X17307356Y-9807144D01*
X17236644Y-9807144D01*
X17236644Y-9877856D01*
X17307356Y-9877856D01*
X17383356Y-4906356D02*
X17383356Y-4835644D01*
X17312644Y-4835644D01*
X17312644Y-4906356D01*
X17383356Y-4906356D01*
X17385356Y-5400356D02*
X17385356Y-5329644D01*
X17314644Y-5329644D01*
X17314644Y-5400356D01*
X17385356Y-5400356D01*
X17385356Y-6924356D02*
X17385356Y-6853644D01*
X17314644Y-6853644D01*
X17314644Y-6924356D01*
X17385356Y-6924356D01*
X17561356Y-9877856D02*
X17561356Y-9807144D01*
X17490644Y-9807144D01*
X17490644Y-9877856D01*
X17561356Y-9877856D01*
X17637356Y-4906356D02*
X17637356Y-4835644D01*
X17566644Y-4835644D01*
X17566644Y-4906356D01*
X17637356Y-4906356D01*
X17639356Y-5400356D02*
X17639356Y-5329644D01*
X17568644Y-5329644D01*
X17568644Y-5400356D01*
X17639356Y-5400356D01*
X17639356Y-6924356D02*
X17639356Y-6853644D01*
X17568644Y-6853644D01*
X17568644Y-6924356D01*
X17639356Y-6924356D01*
X17815356Y-9877856D02*
X17815356Y-9807144D01*
X17744644Y-9807144D01*
X17744644Y-9877856D01*
X17815356Y-9877856D01*
X17891356Y-4906356D02*
X17891356Y-4835644D01*
X17820644Y-4835644D01*
X17820644Y-4906356D01*
X17891356Y-4906356D01*
X17893356Y-5400356D02*
X17893356Y-5329644D01*
X17822644Y-5329644D01*
X17822644Y-5400356D01*
X17893356Y-5400356D01*
X17893356Y-6924356D02*
X17893356Y-6853644D01*
X17822644Y-6853644D01*
X17822644Y-6924356D01*
X17893356Y-6924356D01*
X18069356Y-9877856D02*
X18069356Y-9807144D01*
X17998644Y-9807144D01*
X17998644Y-9877856D01*
X18069356Y-9877856D01*
X18145356Y-4906356D02*
X18145356Y-4835644D01*
X18074644Y-4835644D01*
X18074644Y-4906356D01*
X18145356Y-4906356D01*
X18147356Y-5400356D02*
X18147356Y-5329644D01*
X18076644Y-5329644D01*
X18076644Y-5400356D01*
X18147356Y-5400356D01*
X18147356Y-6924356D02*
X18147356Y-6853644D01*
X18076644Y-6853644D01*
X18076644Y-6924356D01*
X18147356Y-6924356D01*
X18323356Y-9877856D02*
X18323356Y-9807144D01*
X18252644Y-9807144D01*
X18252644Y-9877856D01*
X18323356Y-9877856D01*
X18401356Y-5400356D02*
X18401356Y-5329644D01*
X18330644Y-5329644D01*
X18330644Y-5400356D01*
X18401356Y-5400356D01*
X18401356Y-6924356D02*
X18401356Y-6853644D01*
X18330644Y-6853644D01*
X18330644Y-6924356D01*
X18401356Y-6924356D01*
X18655356Y-5400356D02*
X18655356Y-5329644D01*
X18584644Y-5329644D01*
X18584644Y-5400356D01*
X18655356Y-5400356D01*
X18655356Y-6924356D02*
X18655356Y-6853644D01*
X18584644Y-6853644D01*
X18584644Y-6924356D01*
X18655356Y-6924356D01*
X18909356Y-5400356D02*
X18909356Y-5329644D01*
X18838644Y-5329644D01*
X18838644Y-5400356D01*
X18909356Y-5400356D01*
X18909356Y-6924356D02*
X18909356Y-6853644D01*
X18838644Y-6853644D01*
X18838644Y-6924356D01*
X18909356Y-6924356D01*
D11*
X11358277Y-14513984D02*
X11358277Y-14313984D01*
X11358277Y-14313984D02*
X11405896Y-14313984D01*
X11405896Y-14313984D02*
X11434467Y-14323508D01*
X11434467Y-14323508D02*
X11453515Y-14342555D01*
X11453515Y-14342555D02*
X11463039Y-14361603D01*
X11463039Y-14361603D02*
X11472562Y-14399698D01*
X11472562Y-14399698D02*
X11472562Y-14428269D01*
X11472562Y-14428269D02*
X11463039Y-14466365D01*
X11463039Y-14466365D02*
X11453515Y-14485412D01*
X11453515Y-14485412D02*
X11434467Y-14504460D01*
X11434467Y-14504460D02*
X11405896Y-14513984D01*
X11405896Y-14513984D02*
X11358277Y-14513984D01*
X11558277Y-14513984D02*
X11558277Y-14380650D01*
X11558277Y-14418746D02*
X11567801Y-14399698D01*
X11567801Y-14399698D02*
X11577324Y-14390174D01*
X11577324Y-14390174D02*
X11596372Y-14380650D01*
X11596372Y-14380650D02*
X11615420Y-14380650D01*
X11682086Y-14513984D02*
X11682086Y-14380650D01*
X11682086Y-14313984D02*
X11672562Y-14323508D01*
X11672562Y-14323508D02*
X11682086Y-14333031D01*
X11682086Y-14333031D02*
X11691610Y-14323508D01*
X11691610Y-14323508D02*
X11682086Y-14313984D01*
X11682086Y-14313984D02*
X11682086Y-14333031D01*
X11805896Y-14513984D02*
X11786848Y-14504460D01*
X11786848Y-14504460D02*
X11777324Y-14485412D01*
X11777324Y-14485412D02*
X11777324Y-14313984D01*
X11910658Y-14513984D02*
X11891610Y-14504460D01*
X11891610Y-14504460D02*
X11882086Y-14485412D01*
X11882086Y-14485412D02*
X11882086Y-14313984D01*
X12139229Y-14513984D02*
X12139229Y-14313984D01*
X12139229Y-14313984D02*
X12205896Y-14456841D01*
X12205896Y-14456841D02*
X12272562Y-14313984D01*
X12272562Y-14313984D02*
X12272562Y-14513984D01*
X12453515Y-14513984D02*
X12453515Y-14409222D01*
X12453515Y-14409222D02*
X12443991Y-14390174D01*
X12443991Y-14390174D02*
X12424943Y-14380650D01*
X12424943Y-14380650D02*
X12386848Y-14380650D01*
X12386848Y-14380650D02*
X12367801Y-14390174D01*
X12453515Y-14504460D02*
X12434467Y-14513984D01*
X12434467Y-14513984D02*
X12386848Y-14513984D01*
X12386848Y-14513984D02*
X12367801Y-14504460D01*
X12367801Y-14504460D02*
X12358277Y-14485412D01*
X12358277Y-14485412D02*
X12358277Y-14466365D01*
X12358277Y-14466365D02*
X12367801Y-14447317D01*
X12367801Y-14447317D02*
X12386848Y-14437793D01*
X12386848Y-14437793D02*
X12434467Y-14437793D01*
X12434467Y-14437793D02*
X12453515Y-14428269D01*
X12548753Y-14380650D02*
X12548753Y-14580650D01*
X12548753Y-14390174D02*
X12567801Y-14380650D01*
X12567801Y-14380650D02*
X12605896Y-14380650D01*
X12605896Y-14380650D02*
X12624943Y-14390174D01*
X12624943Y-14390174D02*
X12634467Y-14399698D01*
X12634467Y-14399698D02*
X12643991Y-14418746D01*
X12643991Y-14418746D02*
X12643991Y-14475888D01*
X12643991Y-14475888D02*
X12634467Y-14494936D01*
X12634467Y-14494936D02*
X12624943Y-14504460D01*
X12624943Y-14504460D02*
X12605896Y-14513984D01*
X12605896Y-14513984D02*
X12567801Y-14513984D01*
X12567801Y-14513984D02*
X12548753Y-14504460D01*
X12729705Y-14494936D02*
X12739229Y-14504460D01*
X12739229Y-14504460D02*
X12729705Y-14513984D01*
X12729705Y-14513984D02*
X12720182Y-14504460D01*
X12720182Y-14504460D02*
X12729705Y-14494936D01*
X12729705Y-14494936D02*
X12729705Y-14513984D01*
X12729705Y-14390174D02*
X12739229Y-14399698D01*
X12739229Y-14399698D02*
X12729705Y-14409222D01*
X12729705Y-14409222D02*
X12720182Y-14399698D01*
X12720182Y-14399698D02*
X12729705Y-14390174D01*
X12729705Y-14390174D02*
X12729705Y-14409222D01*
D12*
X11067500Y-14827500D02*
X11097500Y-14857500D01*
X11097500Y-14827500D02*
X11067500Y-14857500D01*
D11*
X11396372Y-14733984D02*
X11415420Y-14733984D01*
X11415420Y-14733984D02*
X11434467Y-14743508D01*
X11434467Y-14743508D02*
X11443991Y-14753031D01*
X11443991Y-14753031D02*
X11453515Y-14772079D01*
X11453515Y-14772079D02*
X11463039Y-14810174D01*
X11463039Y-14810174D02*
X11463039Y-14857793D01*
X11463039Y-14857793D02*
X11453515Y-14895888D01*
X11453515Y-14895888D02*
X11443991Y-14914936D01*
X11443991Y-14914936D02*
X11434467Y-14924460D01*
X11434467Y-14924460D02*
X11415420Y-14933984D01*
X11415420Y-14933984D02*
X11396372Y-14933984D01*
X11396372Y-14933984D02*
X11377324Y-14924460D01*
X11377324Y-14924460D02*
X11367801Y-14914936D01*
X11367801Y-14914936D02*
X11358277Y-14895888D01*
X11358277Y-14895888D02*
X11348753Y-14857793D01*
X11348753Y-14857793D02*
X11348753Y-14810174D01*
X11348753Y-14810174D02*
X11358277Y-14772079D01*
X11358277Y-14772079D02*
X11367801Y-14753031D01*
X11367801Y-14753031D02*
X11377324Y-14743508D01*
X11377324Y-14743508D02*
X11396372Y-14733984D01*
X11548753Y-14914936D02*
X11558277Y-14924460D01*
X11558277Y-14924460D02*
X11548753Y-14933984D01*
X11548753Y-14933984D02*
X11539229Y-14924460D01*
X11539229Y-14924460D02*
X11548753Y-14914936D01*
X11548753Y-14914936D02*
X11548753Y-14933984D01*
X11624943Y-14733984D02*
X11748753Y-14733984D01*
X11748753Y-14733984D02*
X11682086Y-14810174D01*
X11682086Y-14810174D02*
X11710658Y-14810174D01*
X11710658Y-14810174D02*
X11729705Y-14819698D01*
X11729705Y-14819698D02*
X11739229Y-14829222D01*
X11739229Y-14829222D02*
X11748753Y-14848269D01*
X11748753Y-14848269D02*
X11748753Y-14895888D01*
X11748753Y-14895888D02*
X11739229Y-14914936D01*
X11739229Y-14914936D02*
X11729705Y-14924460D01*
X11729705Y-14924460D02*
X11710658Y-14933984D01*
X11710658Y-14933984D02*
X11653515Y-14933984D01*
X11653515Y-14933984D02*
X11634467Y-14924460D01*
X11634467Y-14924460D02*
X11624943Y-14914936D01*
X11872562Y-14733984D02*
X11891610Y-14733984D01*
X11891610Y-14733984D02*
X11910658Y-14743508D01*
X11910658Y-14743508D02*
X11920182Y-14753031D01*
X11920182Y-14753031D02*
X11929705Y-14772079D01*
X11929705Y-14772079D02*
X11939229Y-14810174D01*
X11939229Y-14810174D02*
X11939229Y-14857793D01*
X11939229Y-14857793D02*
X11929705Y-14895888D01*
X11929705Y-14895888D02*
X11920182Y-14914936D01*
X11920182Y-14914936D02*
X11910658Y-14924460D01*
X11910658Y-14924460D02*
X11891610Y-14933984D01*
X11891610Y-14933984D02*
X11872562Y-14933984D01*
X11872562Y-14933984D02*
X11853515Y-14924460D01*
X11853515Y-14924460D02*
X11843991Y-14914936D01*
X11843991Y-14914936D02*
X11834467Y-14895888D01*
X11834467Y-14895888D02*
X11824943Y-14857793D01*
X11824943Y-14857793D02*
X11824943Y-14810174D01*
X11824943Y-14810174D02*
X11834467Y-14772079D01*
X11834467Y-14772079D02*
X11843991Y-14753031D01*
X11843991Y-14753031D02*
X11853515Y-14743508D01*
X11853515Y-14743508D02*
X11872562Y-14733984D01*
X12063039Y-14733984D02*
X12082086Y-14733984D01*
X12082086Y-14733984D02*
X12101134Y-14743508D01*
X12101134Y-14743508D02*
X12110658Y-14753031D01*
X12110658Y-14753031D02*
X12120182Y-14772079D01*
X12120182Y-14772079D02*
X12129705Y-14810174D01*
X12129705Y-14810174D02*
X12129705Y-14857793D01*
X12129705Y-14857793D02*
X12120182Y-14895888D01*
X12120182Y-14895888D02*
X12110658Y-14914936D01*
X12110658Y-14914936D02*
X12101134Y-14924460D01*
X12101134Y-14924460D02*
X12082086Y-14933984D01*
X12082086Y-14933984D02*
X12063039Y-14933984D01*
X12063039Y-14933984D02*
X12043991Y-14924460D01*
X12043991Y-14924460D02*
X12034467Y-14914936D01*
X12034467Y-14914936D02*
X12024943Y-14895888D01*
X12024943Y-14895888D02*
X12015420Y-14857793D01*
X12015420Y-14857793D02*
X12015420Y-14810174D01*
X12015420Y-14810174D02*
X12024943Y-14772079D01*
X12024943Y-14772079D02*
X12034467Y-14753031D01*
X12034467Y-14753031D02*
X12043991Y-14743508D01*
X12043991Y-14743508D02*
X12063039Y-14733984D01*
X12215420Y-14933984D02*
X12215420Y-14800650D01*
X12215420Y-14819698D02*
X12224943Y-14810174D01*
X12224943Y-14810174D02*
X12243991Y-14800650D01*
X12243991Y-14800650D02*
X12272563Y-14800650D01*
X12272563Y-14800650D02*
X12291610Y-14810174D01*
X12291610Y-14810174D02*
X12301134Y-14829222D01*
X12301134Y-14829222D02*
X12301134Y-14933984D01*
X12301134Y-14829222D02*
X12310658Y-14810174D01*
X12310658Y-14810174D02*
X12329705Y-14800650D01*
X12329705Y-14800650D02*
X12358277Y-14800650D01*
X12358277Y-14800650D02*
X12377324Y-14810174D01*
X12377324Y-14810174D02*
X12386848Y-14829222D01*
X12386848Y-14829222D02*
X12386848Y-14933984D01*
X12482086Y-14933984D02*
X12482086Y-14800650D01*
X12482086Y-14819698D02*
X12491610Y-14810174D01*
X12491610Y-14810174D02*
X12510658Y-14800650D01*
X12510658Y-14800650D02*
X12539229Y-14800650D01*
X12539229Y-14800650D02*
X12558277Y-14810174D01*
X12558277Y-14810174D02*
X12567801Y-14829222D01*
X12567801Y-14829222D02*
X12567801Y-14933984D01*
X12567801Y-14829222D02*
X12577324Y-14810174D01*
X12577324Y-14810174D02*
X12596372Y-14800650D01*
X12596372Y-14800650D02*
X12624943Y-14800650D01*
X12624943Y-14800650D02*
X12643991Y-14810174D01*
X12643991Y-14810174D02*
X12653515Y-14829222D01*
X12653515Y-14829222D02*
X12653515Y-14933984D01*
X13043991Y-14724460D02*
X12872563Y-14981603D01*
X13301134Y-14733984D02*
X13320182Y-14733984D01*
X13320182Y-14733984D02*
X13339229Y-14743508D01*
X13339229Y-14743508D02*
X13348753Y-14753031D01*
X13348753Y-14753031D02*
X13358277Y-14772079D01*
X13358277Y-14772079D02*
X13367801Y-14810174D01*
X13367801Y-14810174D02*
X13367801Y-14857793D01*
X13367801Y-14857793D02*
X13358277Y-14895888D01*
X13358277Y-14895888D02*
X13348753Y-14914936D01*
X13348753Y-14914936D02*
X13339229Y-14924460D01*
X13339229Y-14924460D02*
X13320182Y-14933984D01*
X13320182Y-14933984D02*
X13301134Y-14933984D01*
X13301134Y-14933984D02*
X13282086Y-14924460D01*
X13282086Y-14924460D02*
X13272563Y-14914936D01*
X13272563Y-14914936D02*
X13263039Y-14895888D01*
X13263039Y-14895888D02*
X13253515Y-14857793D01*
X13253515Y-14857793D02*
X13253515Y-14810174D01*
X13253515Y-14810174D02*
X13263039Y-14772079D01*
X13263039Y-14772079D02*
X13272563Y-14753031D01*
X13272563Y-14753031D02*
X13282086Y-14743508D01*
X13282086Y-14743508D02*
X13301134Y-14733984D01*
X13453515Y-14914936D02*
X13463039Y-14924460D01*
X13463039Y-14924460D02*
X13453515Y-14933984D01*
X13453515Y-14933984D02*
X13443991Y-14924460D01*
X13443991Y-14924460D02*
X13453515Y-14914936D01*
X13453515Y-14914936D02*
X13453515Y-14933984D01*
X13586848Y-14733984D02*
X13605896Y-14733984D01*
X13605896Y-14733984D02*
X13624944Y-14743508D01*
X13624944Y-14743508D02*
X13634467Y-14753031D01*
X13634467Y-14753031D02*
X13643991Y-14772079D01*
X13643991Y-14772079D02*
X13653515Y-14810174D01*
X13653515Y-14810174D02*
X13653515Y-14857793D01*
X13653515Y-14857793D02*
X13643991Y-14895888D01*
X13643991Y-14895888D02*
X13634467Y-14914936D01*
X13634467Y-14914936D02*
X13624944Y-14924460D01*
X13624944Y-14924460D02*
X13605896Y-14933984D01*
X13605896Y-14933984D02*
X13586848Y-14933984D01*
X13586848Y-14933984D02*
X13567801Y-14924460D01*
X13567801Y-14924460D02*
X13558277Y-14914936D01*
X13558277Y-14914936D02*
X13548753Y-14895888D01*
X13548753Y-14895888D02*
X13539229Y-14857793D01*
X13539229Y-14857793D02*
X13539229Y-14810174D01*
X13539229Y-14810174D02*
X13548753Y-14772079D01*
X13548753Y-14772079D02*
X13558277Y-14753031D01*
X13558277Y-14753031D02*
X13567801Y-14743508D01*
X13567801Y-14743508D02*
X13586848Y-14733984D01*
X13843991Y-14933984D02*
X13729706Y-14933984D01*
X13786848Y-14933984D02*
X13786848Y-14733984D01*
X13786848Y-14733984D02*
X13767801Y-14762555D01*
X13767801Y-14762555D02*
X13748753Y-14781603D01*
X13748753Y-14781603D02*
X13729706Y-14791127D01*
X14034467Y-14933984D02*
X13920182Y-14933984D01*
X13977325Y-14933984D02*
X13977325Y-14733984D01*
X13977325Y-14733984D02*
X13958277Y-14762555D01*
X13958277Y-14762555D02*
X13939229Y-14781603D01*
X13939229Y-14781603D02*
X13920182Y-14791127D01*
X14148753Y-14819698D02*
X14129706Y-14810174D01*
X14129706Y-14810174D02*
X14120182Y-14800650D01*
X14120182Y-14800650D02*
X14110658Y-14781603D01*
X14110658Y-14781603D02*
X14110658Y-14772079D01*
X14110658Y-14772079D02*
X14120182Y-14753031D01*
X14120182Y-14753031D02*
X14129706Y-14743508D01*
X14129706Y-14743508D02*
X14148753Y-14733984D01*
X14148753Y-14733984D02*
X14186848Y-14733984D01*
X14186848Y-14733984D02*
X14205896Y-14743508D01*
X14205896Y-14743508D02*
X14215420Y-14753031D01*
X14215420Y-14753031D02*
X14224944Y-14772079D01*
X14224944Y-14772079D02*
X14224944Y-14781603D01*
X14224944Y-14781603D02*
X14215420Y-14800650D01*
X14215420Y-14800650D02*
X14205896Y-14810174D01*
X14205896Y-14810174D02*
X14186848Y-14819698D01*
X14186848Y-14819698D02*
X14148753Y-14819698D01*
X14148753Y-14819698D02*
X14129706Y-14829222D01*
X14129706Y-14829222D02*
X14120182Y-14838746D01*
X14120182Y-14838746D02*
X14110658Y-14857793D01*
X14110658Y-14857793D02*
X14110658Y-14895888D01*
X14110658Y-14895888D02*
X14120182Y-14914936D01*
X14120182Y-14914936D02*
X14129706Y-14924460D01*
X14129706Y-14924460D02*
X14148753Y-14933984D01*
X14148753Y-14933984D02*
X14186848Y-14933984D01*
X14186848Y-14933984D02*
X14205896Y-14924460D01*
X14205896Y-14924460D02*
X14215420Y-14914936D01*
X14215420Y-14914936D02*
X14224944Y-14895888D01*
X14224944Y-14895888D02*
X14224944Y-14857793D01*
X14224944Y-14857793D02*
X14215420Y-14838746D01*
X14215420Y-14838746D02*
X14205896Y-14829222D01*
X14205896Y-14829222D02*
X14186848Y-14819698D01*
X14301134Y-14733984D02*
X14301134Y-14772079D01*
X14377325Y-14733984D02*
X14377325Y-14772079D01*
X14672563Y-15010174D02*
X14663039Y-15000650D01*
X14663039Y-15000650D02*
X14643991Y-14972079D01*
X14643991Y-14972079D02*
X14634468Y-14953031D01*
X14634468Y-14953031D02*
X14624944Y-14924460D01*
X14624944Y-14924460D02*
X14615420Y-14876841D01*
X14615420Y-14876841D02*
X14615420Y-14838746D01*
X14615420Y-14838746D02*
X14624944Y-14791127D01*
X14624944Y-14791127D02*
X14634468Y-14762555D01*
X14634468Y-14762555D02*
X14643991Y-14743508D01*
X14643991Y-14743508D02*
X14663039Y-14714936D01*
X14663039Y-14714936D02*
X14672563Y-14705412D01*
X14739229Y-14753031D02*
X14748753Y-14743508D01*
X14748753Y-14743508D02*
X14767801Y-14733984D01*
X14767801Y-14733984D02*
X14815420Y-14733984D01*
X14815420Y-14733984D02*
X14834468Y-14743508D01*
X14834468Y-14743508D02*
X14843991Y-14753031D01*
X14843991Y-14753031D02*
X14853515Y-14772079D01*
X14853515Y-14772079D02*
X14853515Y-14791127D01*
X14853515Y-14791127D02*
X14843991Y-14819698D01*
X14843991Y-14819698D02*
X14729706Y-14933984D01*
X14729706Y-14933984D02*
X14853515Y-14933984D01*
X15024944Y-14733984D02*
X14986848Y-14733984D01*
X14986848Y-14733984D02*
X14967801Y-14743508D01*
X14967801Y-14743508D02*
X14958277Y-14753031D01*
X14958277Y-14753031D02*
X14939229Y-14781603D01*
X14939229Y-14781603D02*
X14929706Y-14819698D01*
X14929706Y-14819698D02*
X14929706Y-14895888D01*
X14929706Y-14895888D02*
X14939229Y-14914936D01*
X14939229Y-14914936D02*
X14948753Y-14924460D01*
X14948753Y-14924460D02*
X14967801Y-14933984D01*
X14967801Y-14933984D02*
X15005896Y-14933984D01*
X15005896Y-14933984D02*
X15024944Y-14924460D01*
X15024944Y-14924460D02*
X15034468Y-14914936D01*
X15034468Y-14914936D02*
X15043991Y-14895888D01*
X15043991Y-14895888D02*
X15043991Y-14848269D01*
X15043991Y-14848269D02*
X15034468Y-14829222D01*
X15034468Y-14829222D02*
X15024944Y-14819698D01*
X15024944Y-14819698D02*
X15005896Y-14810174D01*
X15005896Y-14810174D02*
X14967801Y-14810174D01*
X14967801Y-14810174D02*
X14948753Y-14819698D01*
X14948753Y-14819698D02*
X14939229Y-14829222D01*
X14939229Y-14829222D02*
X14929706Y-14848269D01*
X15282087Y-14933984D02*
X15282087Y-14733984D01*
X15367801Y-14933984D02*
X15367801Y-14829222D01*
X15367801Y-14829222D02*
X15358277Y-14810174D01*
X15358277Y-14810174D02*
X15339230Y-14800650D01*
X15339230Y-14800650D02*
X15310658Y-14800650D01*
X15310658Y-14800650D02*
X15291610Y-14810174D01*
X15291610Y-14810174D02*
X15282087Y-14819698D01*
X15491610Y-14933984D02*
X15472563Y-14924460D01*
X15472563Y-14924460D02*
X15463039Y-14914936D01*
X15463039Y-14914936D02*
X15453515Y-14895888D01*
X15453515Y-14895888D02*
X15453515Y-14838746D01*
X15453515Y-14838746D02*
X15463039Y-14819698D01*
X15463039Y-14819698D02*
X15472563Y-14810174D01*
X15472563Y-14810174D02*
X15491610Y-14800650D01*
X15491610Y-14800650D02*
X15520182Y-14800650D01*
X15520182Y-14800650D02*
X15539230Y-14810174D01*
X15539230Y-14810174D02*
X15548753Y-14819698D01*
X15548753Y-14819698D02*
X15558277Y-14838746D01*
X15558277Y-14838746D02*
X15558277Y-14895888D01*
X15558277Y-14895888D02*
X15548753Y-14914936D01*
X15548753Y-14914936D02*
X15539230Y-14924460D01*
X15539230Y-14924460D02*
X15520182Y-14933984D01*
X15520182Y-14933984D02*
X15491610Y-14933984D01*
X15672563Y-14933984D02*
X15653515Y-14924460D01*
X15653515Y-14924460D02*
X15643991Y-14905412D01*
X15643991Y-14905412D02*
X15643991Y-14733984D01*
X15824944Y-14924460D02*
X15805896Y-14933984D01*
X15805896Y-14933984D02*
X15767801Y-14933984D01*
X15767801Y-14933984D02*
X15748753Y-14924460D01*
X15748753Y-14924460D02*
X15739230Y-14905412D01*
X15739230Y-14905412D02*
X15739230Y-14829222D01*
X15739230Y-14829222D02*
X15748753Y-14810174D01*
X15748753Y-14810174D02*
X15767801Y-14800650D01*
X15767801Y-14800650D02*
X15805896Y-14800650D01*
X15805896Y-14800650D02*
X15824944Y-14810174D01*
X15824944Y-14810174D02*
X15834468Y-14829222D01*
X15834468Y-14829222D02*
X15834468Y-14848269D01*
X15834468Y-14848269D02*
X15739230Y-14867317D01*
X15910658Y-14924460D02*
X15929706Y-14933984D01*
X15929706Y-14933984D02*
X15967801Y-14933984D01*
X15967801Y-14933984D02*
X15986849Y-14924460D01*
X15986849Y-14924460D02*
X15996372Y-14905412D01*
X15996372Y-14905412D02*
X15996372Y-14895888D01*
X15996372Y-14895888D02*
X15986849Y-14876841D01*
X15986849Y-14876841D02*
X15967801Y-14867317D01*
X15967801Y-14867317D02*
X15939230Y-14867317D01*
X15939230Y-14867317D02*
X15920182Y-14857793D01*
X15920182Y-14857793D02*
X15910658Y-14838746D01*
X15910658Y-14838746D02*
X15910658Y-14829222D01*
X15910658Y-14829222D02*
X15920182Y-14810174D01*
X15920182Y-14810174D02*
X15939230Y-14800650D01*
X15939230Y-14800650D02*
X15967801Y-14800650D01*
X15967801Y-14800650D02*
X15986849Y-14810174D01*
X16063039Y-15010174D02*
X16072563Y-15000650D01*
X16072563Y-15000650D02*
X16091611Y-14972079D01*
X16091611Y-14972079D02*
X16101134Y-14953031D01*
X16101134Y-14953031D02*
X16110658Y-14924460D01*
X16110658Y-14924460D02*
X16120182Y-14876841D01*
X16120182Y-14876841D02*
X16120182Y-14838746D01*
X16120182Y-14838746D02*
X16110658Y-14791127D01*
X16110658Y-14791127D02*
X16101134Y-14762555D01*
X16101134Y-14762555D02*
X16091611Y-14743508D01*
X16091611Y-14743508D02*
X16072563Y-14714936D01*
X16072563Y-14714936D02*
X16063039Y-14705412D01*
D12*
X11097500Y-15106500D02*
G75*
G02*
X11047500Y-15106500I-25000J0D01*
G01*
X11047500Y-15106500D02*
G75*
G02*
X11097500Y-15106500I25000J0D01*
G01*
D11*
X11396372Y-14997984D02*
X11415420Y-14997984D01*
X11415420Y-14997984D02*
X11434467Y-15007508D01*
X11434467Y-15007508D02*
X11443991Y-15017031D01*
X11443991Y-15017031D02*
X11453515Y-15036079D01*
X11453515Y-15036079D02*
X11463039Y-15074174D01*
X11463039Y-15074174D02*
X11463039Y-15121793D01*
X11463039Y-15121793D02*
X11453515Y-15159888D01*
X11453515Y-15159888D02*
X11443991Y-15178936D01*
X11443991Y-15178936D02*
X11434467Y-15188460D01*
X11434467Y-15188460D02*
X11415420Y-15197984D01*
X11415420Y-15197984D02*
X11396372Y-15197984D01*
X11396372Y-15197984D02*
X11377324Y-15188460D01*
X11377324Y-15188460D02*
X11367801Y-15178936D01*
X11367801Y-15178936D02*
X11358277Y-15159888D01*
X11358277Y-15159888D02*
X11348753Y-15121793D01*
X11348753Y-15121793D02*
X11348753Y-15074174D01*
X11348753Y-15074174D02*
X11358277Y-15036079D01*
X11358277Y-15036079D02*
X11367801Y-15017031D01*
X11367801Y-15017031D02*
X11377324Y-15007508D01*
X11377324Y-15007508D02*
X11396372Y-14997984D01*
X11548753Y-15178936D02*
X11558277Y-15188460D01*
X11558277Y-15188460D02*
X11548753Y-15197984D01*
X11548753Y-15197984D02*
X11539229Y-15188460D01*
X11539229Y-15188460D02*
X11548753Y-15178936D01*
X11548753Y-15178936D02*
X11548753Y-15197984D01*
X11739229Y-14997984D02*
X11643991Y-14997984D01*
X11643991Y-14997984D02*
X11634467Y-15093222D01*
X11634467Y-15093222D02*
X11643991Y-15083698D01*
X11643991Y-15083698D02*
X11663039Y-15074174D01*
X11663039Y-15074174D02*
X11710658Y-15074174D01*
X11710658Y-15074174D02*
X11729705Y-15083698D01*
X11729705Y-15083698D02*
X11739229Y-15093222D01*
X11739229Y-15093222D02*
X11748753Y-15112269D01*
X11748753Y-15112269D02*
X11748753Y-15159888D01*
X11748753Y-15159888D02*
X11739229Y-15178936D01*
X11739229Y-15178936D02*
X11729705Y-15188460D01*
X11729705Y-15188460D02*
X11710658Y-15197984D01*
X11710658Y-15197984D02*
X11663039Y-15197984D01*
X11663039Y-15197984D02*
X11643991Y-15188460D01*
X11643991Y-15188460D02*
X11634467Y-15178936D01*
X11872562Y-14997984D02*
X11891610Y-14997984D01*
X11891610Y-14997984D02*
X11910658Y-15007508D01*
X11910658Y-15007508D02*
X11920182Y-15017031D01*
X11920182Y-15017031D02*
X11929705Y-15036079D01*
X11929705Y-15036079D02*
X11939229Y-15074174D01*
X11939229Y-15074174D02*
X11939229Y-15121793D01*
X11939229Y-15121793D02*
X11929705Y-15159888D01*
X11929705Y-15159888D02*
X11920182Y-15178936D01*
X11920182Y-15178936D02*
X11910658Y-15188460D01*
X11910658Y-15188460D02*
X11891610Y-15197984D01*
X11891610Y-15197984D02*
X11872562Y-15197984D01*
X11872562Y-15197984D02*
X11853515Y-15188460D01*
X11853515Y-15188460D02*
X11843991Y-15178936D01*
X11843991Y-15178936D02*
X11834467Y-15159888D01*
X11834467Y-15159888D02*
X11824943Y-15121793D01*
X11824943Y-15121793D02*
X11824943Y-15074174D01*
X11824943Y-15074174D02*
X11834467Y-15036079D01*
X11834467Y-15036079D02*
X11843991Y-15017031D01*
X11843991Y-15017031D02*
X11853515Y-15007508D01*
X11853515Y-15007508D02*
X11872562Y-14997984D01*
X12063039Y-14997984D02*
X12082086Y-14997984D01*
X12082086Y-14997984D02*
X12101134Y-15007508D01*
X12101134Y-15007508D02*
X12110658Y-15017031D01*
X12110658Y-15017031D02*
X12120182Y-15036079D01*
X12120182Y-15036079D02*
X12129705Y-15074174D01*
X12129705Y-15074174D02*
X12129705Y-15121793D01*
X12129705Y-15121793D02*
X12120182Y-15159888D01*
X12120182Y-15159888D02*
X12110658Y-15178936D01*
X12110658Y-15178936D02*
X12101134Y-15188460D01*
X12101134Y-15188460D02*
X12082086Y-15197984D01*
X12082086Y-15197984D02*
X12063039Y-15197984D01*
X12063039Y-15197984D02*
X12043991Y-15188460D01*
X12043991Y-15188460D02*
X12034467Y-15178936D01*
X12034467Y-15178936D02*
X12024943Y-15159888D01*
X12024943Y-15159888D02*
X12015420Y-15121793D01*
X12015420Y-15121793D02*
X12015420Y-15074174D01*
X12015420Y-15074174D02*
X12024943Y-15036079D01*
X12024943Y-15036079D02*
X12034467Y-15017031D01*
X12034467Y-15017031D02*
X12043991Y-15007508D01*
X12043991Y-15007508D02*
X12063039Y-14997984D01*
X12215420Y-15197984D02*
X12215420Y-15064650D01*
X12215420Y-15083698D02*
X12224943Y-15074174D01*
X12224943Y-15074174D02*
X12243991Y-15064650D01*
X12243991Y-15064650D02*
X12272563Y-15064650D01*
X12272563Y-15064650D02*
X12291610Y-15074174D01*
X12291610Y-15074174D02*
X12301134Y-15093222D01*
X12301134Y-15093222D02*
X12301134Y-15197984D01*
X12301134Y-15093222D02*
X12310658Y-15074174D01*
X12310658Y-15074174D02*
X12329705Y-15064650D01*
X12329705Y-15064650D02*
X12358277Y-15064650D01*
X12358277Y-15064650D02*
X12377324Y-15074174D01*
X12377324Y-15074174D02*
X12386848Y-15093222D01*
X12386848Y-15093222D02*
X12386848Y-15197984D01*
X12482086Y-15197984D02*
X12482086Y-15064650D01*
X12482086Y-15083698D02*
X12491610Y-15074174D01*
X12491610Y-15074174D02*
X12510658Y-15064650D01*
X12510658Y-15064650D02*
X12539229Y-15064650D01*
X12539229Y-15064650D02*
X12558277Y-15074174D01*
X12558277Y-15074174D02*
X12567801Y-15093222D01*
X12567801Y-15093222D02*
X12567801Y-15197984D01*
X12567801Y-15093222D02*
X12577324Y-15074174D01*
X12577324Y-15074174D02*
X12596372Y-15064650D01*
X12596372Y-15064650D02*
X12624943Y-15064650D01*
X12624943Y-15064650D02*
X12643991Y-15074174D01*
X12643991Y-15074174D02*
X12653515Y-15093222D01*
X12653515Y-15093222D02*
X12653515Y-15197984D01*
X13043991Y-14988460D02*
X12872563Y-15245603D01*
X13301134Y-14997984D02*
X13320182Y-14997984D01*
X13320182Y-14997984D02*
X13339229Y-15007508D01*
X13339229Y-15007508D02*
X13348753Y-15017031D01*
X13348753Y-15017031D02*
X13358277Y-15036079D01*
X13358277Y-15036079D02*
X13367801Y-15074174D01*
X13367801Y-15074174D02*
X13367801Y-15121793D01*
X13367801Y-15121793D02*
X13358277Y-15159888D01*
X13358277Y-15159888D02*
X13348753Y-15178936D01*
X13348753Y-15178936D02*
X13339229Y-15188460D01*
X13339229Y-15188460D02*
X13320182Y-15197984D01*
X13320182Y-15197984D02*
X13301134Y-15197984D01*
X13301134Y-15197984D02*
X13282086Y-15188460D01*
X13282086Y-15188460D02*
X13272563Y-15178936D01*
X13272563Y-15178936D02*
X13263039Y-15159888D01*
X13263039Y-15159888D02*
X13253515Y-15121793D01*
X13253515Y-15121793D02*
X13253515Y-15074174D01*
X13253515Y-15074174D02*
X13263039Y-15036079D01*
X13263039Y-15036079D02*
X13272563Y-15017031D01*
X13272563Y-15017031D02*
X13282086Y-15007508D01*
X13282086Y-15007508D02*
X13301134Y-14997984D01*
X13453515Y-15178936D02*
X13463039Y-15188460D01*
X13463039Y-15188460D02*
X13453515Y-15197984D01*
X13453515Y-15197984D02*
X13443991Y-15188460D01*
X13443991Y-15188460D02*
X13453515Y-15178936D01*
X13453515Y-15178936D02*
X13453515Y-15197984D01*
X13586848Y-14997984D02*
X13605896Y-14997984D01*
X13605896Y-14997984D02*
X13624944Y-15007508D01*
X13624944Y-15007508D02*
X13634467Y-15017031D01*
X13634467Y-15017031D02*
X13643991Y-15036079D01*
X13643991Y-15036079D02*
X13653515Y-15074174D01*
X13653515Y-15074174D02*
X13653515Y-15121793D01*
X13653515Y-15121793D02*
X13643991Y-15159888D01*
X13643991Y-15159888D02*
X13634467Y-15178936D01*
X13634467Y-15178936D02*
X13624944Y-15188460D01*
X13624944Y-15188460D02*
X13605896Y-15197984D01*
X13605896Y-15197984D02*
X13586848Y-15197984D01*
X13586848Y-15197984D02*
X13567801Y-15188460D01*
X13567801Y-15188460D02*
X13558277Y-15178936D01*
X13558277Y-15178936D02*
X13548753Y-15159888D01*
X13548753Y-15159888D02*
X13539229Y-15121793D01*
X13539229Y-15121793D02*
X13539229Y-15074174D01*
X13539229Y-15074174D02*
X13548753Y-15036079D01*
X13548753Y-15036079D02*
X13558277Y-15017031D01*
X13558277Y-15017031D02*
X13567801Y-15007508D01*
X13567801Y-15007508D02*
X13586848Y-14997984D01*
X13843991Y-15197984D02*
X13729706Y-15197984D01*
X13786848Y-15197984D02*
X13786848Y-14997984D01*
X13786848Y-14997984D02*
X13767801Y-15026555D01*
X13767801Y-15026555D02*
X13748753Y-15045603D01*
X13748753Y-15045603D02*
X13729706Y-15055127D01*
X13939229Y-15197984D02*
X13977325Y-15197984D01*
X13977325Y-15197984D02*
X13996372Y-15188460D01*
X13996372Y-15188460D02*
X14005896Y-15178936D01*
X14005896Y-15178936D02*
X14024944Y-15150365D01*
X14024944Y-15150365D02*
X14034467Y-15112269D01*
X14034467Y-15112269D02*
X14034467Y-15036079D01*
X14034467Y-15036079D02*
X14024944Y-15017031D01*
X14024944Y-15017031D02*
X14015420Y-15007508D01*
X14015420Y-15007508D02*
X13996372Y-14997984D01*
X13996372Y-14997984D02*
X13958277Y-14997984D01*
X13958277Y-14997984D02*
X13939229Y-15007508D01*
X13939229Y-15007508D02*
X13929706Y-15017031D01*
X13929706Y-15017031D02*
X13920182Y-15036079D01*
X13920182Y-15036079D02*
X13920182Y-15083698D01*
X13920182Y-15083698D02*
X13929706Y-15102746D01*
X13929706Y-15102746D02*
X13939229Y-15112269D01*
X13939229Y-15112269D02*
X13958277Y-15121793D01*
X13958277Y-15121793D02*
X13996372Y-15121793D01*
X13996372Y-15121793D02*
X14015420Y-15112269D01*
X14015420Y-15112269D02*
X14024944Y-15102746D01*
X14024944Y-15102746D02*
X14034467Y-15083698D01*
X14101134Y-14997984D02*
X14234467Y-14997984D01*
X14234467Y-14997984D02*
X14148753Y-15197984D01*
X14301134Y-14997984D02*
X14301134Y-15036079D01*
X14377325Y-14997984D02*
X14377325Y-15036079D01*
X14672563Y-15274174D02*
X14663039Y-15264650D01*
X14663039Y-15264650D02*
X14643991Y-15236079D01*
X14643991Y-15236079D02*
X14634468Y-15217031D01*
X14634468Y-15217031D02*
X14624944Y-15188460D01*
X14624944Y-15188460D02*
X14615420Y-15140841D01*
X14615420Y-15140841D02*
X14615420Y-15102746D01*
X14615420Y-15102746D02*
X14624944Y-15055127D01*
X14624944Y-15055127D02*
X14634468Y-15026555D01*
X14634468Y-15026555D02*
X14643991Y-15007508D01*
X14643991Y-15007508D02*
X14663039Y-14978936D01*
X14663039Y-14978936D02*
X14672563Y-14969412D01*
X14739229Y-15017031D02*
X14748753Y-15007508D01*
X14748753Y-15007508D02*
X14767801Y-14997984D01*
X14767801Y-14997984D02*
X14815420Y-14997984D01*
X14815420Y-14997984D02*
X14834468Y-15007508D01*
X14834468Y-15007508D02*
X14843991Y-15017031D01*
X14843991Y-15017031D02*
X14853515Y-15036079D01*
X14853515Y-15036079D02*
X14853515Y-15055127D01*
X14853515Y-15055127D02*
X14843991Y-15083698D01*
X14843991Y-15083698D02*
X14729706Y-15197984D01*
X14729706Y-15197984D02*
X14853515Y-15197984D01*
X15091610Y-15197984D02*
X15091610Y-14997984D01*
X15177325Y-15197984D02*
X15177325Y-15093222D01*
X15177325Y-15093222D02*
X15167801Y-15074174D01*
X15167801Y-15074174D02*
X15148753Y-15064650D01*
X15148753Y-15064650D02*
X15120182Y-15064650D01*
X15120182Y-15064650D02*
X15101134Y-15074174D01*
X15101134Y-15074174D02*
X15091610Y-15083698D01*
X15301134Y-15197984D02*
X15282087Y-15188460D01*
X15282087Y-15188460D02*
X15272563Y-15178936D01*
X15272563Y-15178936D02*
X15263039Y-15159888D01*
X15263039Y-15159888D02*
X15263039Y-15102746D01*
X15263039Y-15102746D02*
X15272563Y-15083698D01*
X15272563Y-15083698D02*
X15282087Y-15074174D01*
X15282087Y-15074174D02*
X15301134Y-15064650D01*
X15301134Y-15064650D02*
X15329706Y-15064650D01*
X15329706Y-15064650D02*
X15348753Y-15074174D01*
X15348753Y-15074174D02*
X15358277Y-15083698D01*
X15358277Y-15083698D02*
X15367801Y-15102746D01*
X15367801Y-15102746D02*
X15367801Y-15159888D01*
X15367801Y-15159888D02*
X15358277Y-15178936D01*
X15358277Y-15178936D02*
X15348753Y-15188460D01*
X15348753Y-15188460D02*
X15329706Y-15197984D01*
X15329706Y-15197984D02*
X15301134Y-15197984D01*
X15482087Y-15197984D02*
X15463039Y-15188460D01*
X15463039Y-15188460D02*
X15453515Y-15169412D01*
X15453515Y-15169412D02*
X15453515Y-14997984D01*
X15634468Y-15188460D02*
X15615420Y-15197984D01*
X15615420Y-15197984D02*
X15577325Y-15197984D01*
X15577325Y-15197984D02*
X15558277Y-15188460D01*
X15558277Y-15188460D02*
X15548753Y-15169412D01*
X15548753Y-15169412D02*
X15548753Y-15093222D01*
X15548753Y-15093222D02*
X15558277Y-15074174D01*
X15558277Y-15074174D02*
X15577325Y-15064650D01*
X15577325Y-15064650D02*
X15615420Y-15064650D01*
X15615420Y-15064650D02*
X15634468Y-15074174D01*
X15634468Y-15074174D02*
X15643991Y-15093222D01*
X15643991Y-15093222D02*
X15643991Y-15112269D01*
X15643991Y-15112269D02*
X15548753Y-15131317D01*
X15720182Y-15188460D02*
X15739230Y-15197984D01*
X15739230Y-15197984D02*
X15777325Y-15197984D01*
X15777325Y-15197984D02*
X15796372Y-15188460D01*
X15796372Y-15188460D02*
X15805896Y-15169412D01*
X15805896Y-15169412D02*
X15805896Y-15159888D01*
X15805896Y-15159888D02*
X15796372Y-15140841D01*
X15796372Y-15140841D02*
X15777325Y-15131317D01*
X15777325Y-15131317D02*
X15748753Y-15131317D01*
X15748753Y-15131317D02*
X15729706Y-15121793D01*
X15729706Y-15121793D02*
X15720182Y-15102746D01*
X15720182Y-15102746D02*
X15720182Y-15093222D01*
X15720182Y-15093222D02*
X15729706Y-15074174D01*
X15729706Y-15074174D02*
X15748753Y-15064650D01*
X15748753Y-15064650D02*
X15777325Y-15064650D01*
X15777325Y-15064650D02*
X15796372Y-15074174D01*
X15872563Y-15274174D02*
X15882087Y-15264650D01*
X15882087Y-15264650D02*
X15901134Y-15236079D01*
X15901134Y-15236079D02*
X15910658Y-15217031D01*
X15910658Y-15217031D02*
X15920182Y-15188460D01*
X15920182Y-15188460D02*
X15929706Y-15140841D01*
X15929706Y-15140841D02*
X15929706Y-15102746D01*
X15929706Y-15102746D02*
X15920182Y-15055127D01*
X15920182Y-15055127D02*
X15910658Y-15026555D01*
X15910658Y-15026555D02*
X15901134Y-15007508D01*
X15901134Y-15007508D02*
X15882087Y-14978936D01*
X15882087Y-14978936D02*
X15872563Y-14969412D01*
D12*
X11057500Y-15330500D02*
X11057500Y-15410500D01*
X11017500Y-15370500D02*
X11097500Y-15370500D01*
D11*
X11396372Y-15261984D02*
X11415420Y-15261984D01*
X11415420Y-15261984D02*
X11434467Y-15271508D01*
X11434467Y-15271508D02*
X11443991Y-15281031D01*
X11443991Y-15281031D02*
X11453515Y-15300079D01*
X11453515Y-15300079D02*
X11463039Y-15338174D01*
X11463039Y-15338174D02*
X11463039Y-15385793D01*
X11463039Y-15385793D02*
X11453515Y-15423888D01*
X11453515Y-15423888D02*
X11443991Y-15442936D01*
X11443991Y-15442936D02*
X11434467Y-15452460D01*
X11434467Y-15452460D02*
X11415420Y-15461984D01*
X11415420Y-15461984D02*
X11396372Y-15461984D01*
X11396372Y-15461984D02*
X11377324Y-15452460D01*
X11377324Y-15452460D02*
X11367801Y-15442936D01*
X11367801Y-15442936D02*
X11358277Y-15423888D01*
X11358277Y-15423888D02*
X11348753Y-15385793D01*
X11348753Y-15385793D02*
X11348753Y-15338174D01*
X11348753Y-15338174D02*
X11358277Y-15300079D01*
X11358277Y-15300079D02*
X11367801Y-15281031D01*
X11367801Y-15281031D02*
X11377324Y-15271508D01*
X11377324Y-15271508D02*
X11396372Y-15261984D01*
X11548753Y-15442936D02*
X11558277Y-15452460D01*
X11558277Y-15452460D02*
X11548753Y-15461984D01*
X11548753Y-15461984D02*
X11539229Y-15452460D01*
X11539229Y-15452460D02*
X11548753Y-15442936D01*
X11548753Y-15442936D02*
X11548753Y-15461984D01*
X11672562Y-15347698D02*
X11653515Y-15338174D01*
X11653515Y-15338174D02*
X11643991Y-15328650D01*
X11643991Y-15328650D02*
X11634467Y-15309603D01*
X11634467Y-15309603D02*
X11634467Y-15300079D01*
X11634467Y-15300079D02*
X11643991Y-15281031D01*
X11643991Y-15281031D02*
X11653515Y-15271508D01*
X11653515Y-15271508D02*
X11672562Y-15261984D01*
X11672562Y-15261984D02*
X11710658Y-15261984D01*
X11710658Y-15261984D02*
X11729705Y-15271508D01*
X11729705Y-15271508D02*
X11739229Y-15281031D01*
X11739229Y-15281031D02*
X11748753Y-15300079D01*
X11748753Y-15300079D02*
X11748753Y-15309603D01*
X11748753Y-15309603D02*
X11739229Y-15328650D01*
X11739229Y-15328650D02*
X11729705Y-15338174D01*
X11729705Y-15338174D02*
X11710658Y-15347698D01*
X11710658Y-15347698D02*
X11672562Y-15347698D01*
X11672562Y-15347698D02*
X11653515Y-15357222D01*
X11653515Y-15357222D02*
X11643991Y-15366746D01*
X11643991Y-15366746D02*
X11634467Y-15385793D01*
X11634467Y-15385793D02*
X11634467Y-15423888D01*
X11634467Y-15423888D02*
X11643991Y-15442936D01*
X11643991Y-15442936D02*
X11653515Y-15452460D01*
X11653515Y-15452460D02*
X11672562Y-15461984D01*
X11672562Y-15461984D02*
X11710658Y-15461984D01*
X11710658Y-15461984D02*
X11729705Y-15452460D01*
X11729705Y-15452460D02*
X11739229Y-15442936D01*
X11739229Y-15442936D02*
X11748753Y-15423888D01*
X11748753Y-15423888D02*
X11748753Y-15385793D01*
X11748753Y-15385793D02*
X11739229Y-15366746D01*
X11739229Y-15366746D02*
X11729705Y-15357222D01*
X11729705Y-15357222D02*
X11710658Y-15347698D01*
X11872562Y-15261984D02*
X11891610Y-15261984D01*
X11891610Y-15261984D02*
X11910658Y-15271508D01*
X11910658Y-15271508D02*
X11920182Y-15281031D01*
X11920182Y-15281031D02*
X11929705Y-15300079D01*
X11929705Y-15300079D02*
X11939229Y-15338174D01*
X11939229Y-15338174D02*
X11939229Y-15385793D01*
X11939229Y-15385793D02*
X11929705Y-15423888D01*
X11929705Y-15423888D02*
X11920182Y-15442936D01*
X11920182Y-15442936D02*
X11910658Y-15452460D01*
X11910658Y-15452460D02*
X11891610Y-15461984D01*
X11891610Y-15461984D02*
X11872562Y-15461984D01*
X11872562Y-15461984D02*
X11853515Y-15452460D01*
X11853515Y-15452460D02*
X11843991Y-15442936D01*
X11843991Y-15442936D02*
X11834467Y-15423888D01*
X11834467Y-15423888D02*
X11824943Y-15385793D01*
X11824943Y-15385793D02*
X11824943Y-15338174D01*
X11824943Y-15338174D02*
X11834467Y-15300079D01*
X11834467Y-15300079D02*
X11843991Y-15281031D01*
X11843991Y-15281031D02*
X11853515Y-15271508D01*
X11853515Y-15271508D02*
X11872562Y-15261984D01*
X12063039Y-15261984D02*
X12082086Y-15261984D01*
X12082086Y-15261984D02*
X12101134Y-15271508D01*
X12101134Y-15271508D02*
X12110658Y-15281031D01*
X12110658Y-15281031D02*
X12120182Y-15300079D01*
X12120182Y-15300079D02*
X12129705Y-15338174D01*
X12129705Y-15338174D02*
X12129705Y-15385793D01*
X12129705Y-15385793D02*
X12120182Y-15423888D01*
X12120182Y-15423888D02*
X12110658Y-15442936D01*
X12110658Y-15442936D02*
X12101134Y-15452460D01*
X12101134Y-15452460D02*
X12082086Y-15461984D01*
X12082086Y-15461984D02*
X12063039Y-15461984D01*
X12063039Y-15461984D02*
X12043991Y-15452460D01*
X12043991Y-15452460D02*
X12034467Y-15442936D01*
X12034467Y-15442936D02*
X12024943Y-15423888D01*
X12024943Y-15423888D02*
X12015420Y-15385793D01*
X12015420Y-15385793D02*
X12015420Y-15338174D01*
X12015420Y-15338174D02*
X12024943Y-15300079D01*
X12024943Y-15300079D02*
X12034467Y-15281031D01*
X12034467Y-15281031D02*
X12043991Y-15271508D01*
X12043991Y-15271508D02*
X12063039Y-15261984D01*
X12215420Y-15461984D02*
X12215420Y-15328650D01*
X12215420Y-15347698D02*
X12224943Y-15338174D01*
X12224943Y-15338174D02*
X12243991Y-15328650D01*
X12243991Y-15328650D02*
X12272563Y-15328650D01*
X12272563Y-15328650D02*
X12291610Y-15338174D01*
X12291610Y-15338174D02*
X12301134Y-15357222D01*
X12301134Y-15357222D02*
X12301134Y-15461984D01*
X12301134Y-15357222D02*
X12310658Y-15338174D01*
X12310658Y-15338174D02*
X12329705Y-15328650D01*
X12329705Y-15328650D02*
X12358277Y-15328650D01*
X12358277Y-15328650D02*
X12377324Y-15338174D01*
X12377324Y-15338174D02*
X12386848Y-15357222D01*
X12386848Y-15357222D02*
X12386848Y-15461984D01*
X12482086Y-15461984D02*
X12482086Y-15328650D01*
X12482086Y-15347698D02*
X12491610Y-15338174D01*
X12491610Y-15338174D02*
X12510658Y-15328650D01*
X12510658Y-15328650D02*
X12539229Y-15328650D01*
X12539229Y-15328650D02*
X12558277Y-15338174D01*
X12558277Y-15338174D02*
X12567801Y-15357222D01*
X12567801Y-15357222D02*
X12567801Y-15461984D01*
X12567801Y-15357222D02*
X12577324Y-15338174D01*
X12577324Y-15338174D02*
X12596372Y-15328650D01*
X12596372Y-15328650D02*
X12624943Y-15328650D01*
X12624943Y-15328650D02*
X12643991Y-15338174D01*
X12643991Y-15338174D02*
X12653515Y-15357222D01*
X12653515Y-15357222D02*
X12653515Y-15461984D01*
X13043991Y-15252460D02*
X12872563Y-15509603D01*
X13301134Y-15261984D02*
X13320182Y-15261984D01*
X13320182Y-15261984D02*
X13339229Y-15271508D01*
X13339229Y-15271508D02*
X13348753Y-15281031D01*
X13348753Y-15281031D02*
X13358277Y-15300079D01*
X13358277Y-15300079D02*
X13367801Y-15338174D01*
X13367801Y-15338174D02*
X13367801Y-15385793D01*
X13367801Y-15385793D02*
X13358277Y-15423888D01*
X13358277Y-15423888D02*
X13348753Y-15442936D01*
X13348753Y-15442936D02*
X13339229Y-15452460D01*
X13339229Y-15452460D02*
X13320182Y-15461984D01*
X13320182Y-15461984D02*
X13301134Y-15461984D01*
X13301134Y-15461984D02*
X13282086Y-15452460D01*
X13282086Y-15452460D02*
X13272563Y-15442936D01*
X13272563Y-15442936D02*
X13263039Y-15423888D01*
X13263039Y-15423888D02*
X13253515Y-15385793D01*
X13253515Y-15385793D02*
X13253515Y-15338174D01*
X13253515Y-15338174D02*
X13263039Y-15300079D01*
X13263039Y-15300079D02*
X13272563Y-15281031D01*
X13272563Y-15281031D02*
X13282086Y-15271508D01*
X13282086Y-15271508D02*
X13301134Y-15261984D01*
X13453515Y-15442936D02*
X13463039Y-15452460D01*
X13463039Y-15452460D02*
X13453515Y-15461984D01*
X13453515Y-15461984D02*
X13443991Y-15452460D01*
X13443991Y-15452460D02*
X13453515Y-15442936D01*
X13453515Y-15442936D02*
X13453515Y-15461984D01*
X13586848Y-15261984D02*
X13605896Y-15261984D01*
X13605896Y-15261984D02*
X13624944Y-15271508D01*
X13624944Y-15271508D02*
X13634467Y-15281031D01*
X13634467Y-15281031D02*
X13643991Y-15300079D01*
X13643991Y-15300079D02*
X13653515Y-15338174D01*
X13653515Y-15338174D02*
X13653515Y-15385793D01*
X13653515Y-15385793D02*
X13643991Y-15423888D01*
X13643991Y-15423888D02*
X13634467Y-15442936D01*
X13634467Y-15442936D02*
X13624944Y-15452460D01*
X13624944Y-15452460D02*
X13605896Y-15461984D01*
X13605896Y-15461984D02*
X13586848Y-15461984D01*
X13586848Y-15461984D02*
X13567801Y-15452460D01*
X13567801Y-15452460D02*
X13558277Y-15442936D01*
X13558277Y-15442936D02*
X13548753Y-15423888D01*
X13548753Y-15423888D02*
X13539229Y-15385793D01*
X13539229Y-15385793D02*
X13539229Y-15338174D01*
X13539229Y-15338174D02*
X13548753Y-15300079D01*
X13548753Y-15300079D02*
X13558277Y-15281031D01*
X13558277Y-15281031D02*
X13567801Y-15271508D01*
X13567801Y-15271508D02*
X13586848Y-15261984D01*
X13720182Y-15261984D02*
X13843991Y-15261984D01*
X13843991Y-15261984D02*
X13777325Y-15338174D01*
X13777325Y-15338174D02*
X13805896Y-15338174D01*
X13805896Y-15338174D02*
X13824944Y-15347698D01*
X13824944Y-15347698D02*
X13834467Y-15357222D01*
X13834467Y-15357222D02*
X13843991Y-15376269D01*
X13843991Y-15376269D02*
X13843991Y-15423888D01*
X13843991Y-15423888D02*
X13834467Y-15442936D01*
X13834467Y-15442936D02*
X13824944Y-15452460D01*
X13824944Y-15452460D02*
X13805896Y-15461984D01*
X13805896Y-15461984D02*
X13748753Y-15461984D01*
X13748753Y-15461984D02*
X13729706Y-15452460D01*
X13729706Y-15452460D02*
X13720182Y-15442936D01*
X14034467Y-15461984D02*
X13920182Y-15461984D01*
X13977325Y-15461984D02*
X13977325Y-15261984D01*
X13977325Y-15261984D02*
X13958277Y-15290555D01*
X13958277Y-15290555D02*
X13939229Y-15309603D01*
X13939229Y-15309603D02*
X13920182Y-15319127D01*
X14215420Y-15261984D02*
X14120182Y-15261984D01*
X14120182Y-15261984D02*
X14110658Y-15357222D01*
X14110658Y-15357222D02*
X14120182Y-15347698D01*
X14120182Y-15347698D02*
X14139229Y-15338174D01*
X14139229Y-15338174D02*
X14186848Y-15338174D01*
X14186848Y-15338174D02*
X14205896Y-15347698D01*
X14205896Y-15347698D02*
X14215420Y-15357222D01*
X14215420Y-15357222D02*
X14224944Y-15376269D01*
X14224944Y-15376269D02*
X14224944Y-15423888D01*
X14224944Y-15423888D02*
X14215420Y-15442936D01*
X14215420Y-15442936D02*
X14205896Y-15452460D01*
X14205896Y-15452460D02*
X14186848Y-15461984D01*
X14186848Y-15461984D02*
X14139229Y-15461984D01*
X14139229Y-15461984D02*
X14120182Y-15452460D01*
X14120182Y-15452460D02*
X14110658Y-15442936D01*
X14301134Y-15261984D02*
X14301134Y-15300079D01*
X14377325Y-15261984D02*
X14377325Y-15300079D01*
X14672563Y-15538174D02*
X14663039Y-15528650D01*
X14663039Y-15528650D02*
X14643991Y-15500079D01*
X14643991Y-15500079D02*
X14634468Y-15481031D01*
X14634468Y-15481031D02*
X14624944Y-15452460D01*
X14624944Y-15452460D02*
X14615420Y-15404841D01*
X14615420Y-15404841D02*
X14615420Y-15366746D01*
X14615420Y-15366746D02*
X14624944Y-15319127D01*
X14624944Y-15319127D02*
X14634468Y-15290555D01*
X14634468Y-15290555D02*
X14643991Y-15271508D01*
X14643991Y-15271508D02*
X14663039Y-15242936D01*
X14663039Y-15242936D02*
X14672563Y-15233412D01*
X14853515Y-15461984D02*
X14739229Y-15461984D01*
X14796372Y-15461984D02*
X14796372Y-15261984D01*
X14796372Y-15261984D02*
X14777325Y-15290555D01*
X14777325Y-15290555D02*
X14758277Y-15309603D01*
X14758277Y-15309603D02*
X14739229Y-15319127D01*
X14929706Y-15281031D02*
X14939229Y-15271508D01*
X14939229Y-15271508D02*
X14958277Y-15261984D01*
X14958277Y-15261984D02*
X15005896Y-15261984D01*
X15005896Y-15261984D02*
X15024944Y-15271508D01*
X15024944Y-15271508D02*
X15034468Y-15281031D01*
X15034468Y-15281031D02*
X15043991Y-15300079D01*
X15043991Y-15300079D02*
X15043991Y-15319127D01*
X15043991Y-15319127D02*
X15034468Y-15347698D01*
X15034468Y-15347698D02*
X14920182Y-15461984D01*
X14920182Y-15461984D02*
X15043991Y-15461984D01*
X15224944Y-15261984D02*
X15129706Y-15261984D01*
X15129706Y-15261984D02*
X15120182Y-15357222D01*
X15120182Y-15357222D02*
X15129706Y-15347698D01*
X15129706Y-15347698D02*
X15148753Y-15338174D01*
X15148753Y-15338174D02*
X15196372Y-15338174D01*
X15196372Y-15338174D02*
X15215420Y-15347698D01*
X15215420Y-15347698D02*
X15224944Y-15357222D01*
X15224944Y-15357222D02*
X15234468Y-15376269D01*
X15234468Y-15376269D02*
X15234468Y-15423888D01*
X15234468Y-15423888D02*
X15224944Y-15442936D01*
X15224944Y-15442936D02*
X15215420Y-15452460D01*
X15215420Y-15452460D02*
X15196372Y-15461984D01*
X15196372Y-15461984D02*
X15148753Y-15461984D01*
X15148753Y-15461984D02*
X15129706Y-15452460D01*
X15129706Y-15452460D02*
X15120182Y-15442936D01*
X15472563Y-15461984D02*
X15472563Y-15261984D01*
X15558277Y-15461984D02*
X15558277Y-15357222D01*
X15558277Y-15357222D02*
X15548753Y-15338174D01*
X15548753Y-15338174D02*
X15529706Y-15328650D01*
X15529706Y-15328650D02*
X15501134Y-15328650D01*
X15501134Y-15328650D02*
X15482087Y-15338174D01*
X15482087Y-15338174D02*
X15472563Y-15347698D01*
X15682087Y-15461984D02*
X15663039Y-15452460D01*
X15663039Y-15452460D02*
X15653515Y-15442936D01*
X15653515Y-15442936D02*
X15643991Y-15423888D01*
X15643991Y-15423888D02*
X15643991Y-15366746D01*
X15643991Y-15366746D02*
X15653515Y-15347698D01*
X15653515Y-15347698D02*
X15663039Y-15338174D01*
X15663039Y-15338174D02*
X15682087Y-15328650D01*
X15682087Y-15328650D02*
X15710658Y-15328650D01*
X15710658Y-15328650D02*
X15729706Y-15338174D01*
X15729706Y-15338174D02*
X15739230Y-15347698D01*
X15739230Y-15347698D02*
X15748753Y-15366746D01*
X15748753Y-15366746D02*
X15748753Y-15423888D01*
X15748753Y-15423888D02*
X15739230Y-15442936D01*
X15739230Y-15442936D02*
X15729706Y-15452460D01*
X15729706Y-15452460D02*
X15710658Y-15461984D01*
X15710658Y-15461984D02*
X15682087Y-15461984D01*
X15863039Y-15461984D02*
X15843991Y-15452460D01*
X15843991Y-15452460D02*
X15834468Y-15433412D01*
X15834468Y-15433412D02*
X15834468Y-15261984D01*
X16015420Y-15452460D02*
X15996372Y-15461984D01*
X15996372Y-15461984D02*
X15958277Y-15461984D01*
X15958277Y-15461984D02*
X15939230Y-15452460D01*
X15939230Y-15452460D02*
X15929706Y-15433412D01*
X15929706Y-15433412D02*
X15929706Y-15357222D01*
X15929706Y-15357222D02*
X15939230Y-15338174D01*
X15939230Y-15338174D02*
X15958277Y-15328650D01*
X15958277Y-15328650D02*
X15996372Y-15328650D01*
X15996372Y-15328650D02*
X16015420Y-15338174D01*
X16015420Y-15338174D02*
X16024944Y-15357222D01*
X16024944Y-15357222D02*
X16024944Y-15376269D01*
X16024944Y-15376269D02*
X15929706Y-15395317D01*
X16101134Y-15452460D02*
X16120182Y-15461984D01*
X16120182Y-15461984D02*
X16158277Y-15461984D01*
X16158277Y-15461984D02*
X16177325Y-15452460D01*
X16177325Y-15452460D02*
X16186849Y-15433412D01*
X16186849Y-15433412D02*
X16186849Y-15423888D01*
X16186849Y-15423888D02*
X16177325Y-15404841D01*
X16177325Y-15404841D02*
X16158277Y-15395317D01*
X16158277Y-15395317D02*
X16129706Y-15395317D01*
X16129706Y-15395317D02*
X16110658Y-15385793D01*
X16110658Y-15385793D02*
X16101134Y-15366746D01*
X16101134Y-15366746D02*
X16101134Y-15357222D01*
X16101134Y-15357222D02*
X16110658Y-15338174D01*
X16110658Y-15338174D02*
X16129706Y-15328650D01*
X16129706Y-15328650D02*
X16158277Y-15328650D01*
X16158277Y-15328650D02*
X16177325Y-15338174D01*
X16253515Y-15538174D02*
X16263039Y-15528650D01*
X16263039Y-15528650D02*
X16282087Y-15500079D01*
X16282087Y-15500079D02*
X16291611Y-15481031D01*
X16291611Y-15481031D02*
X16301134Y-15452460D01*
X16301134Y-15452460D02*
X16310658Y-15404841D01*
X16310658Y-15404841D02*
X16310658Y-15366746D01*
X16310658Y-15366746D02*
X16301134Y-15319127D01*
X16301134Y-15319127D02*
X16291611Y-15290555D01*
X16291611Y-15290555D02*
X16282087Y-15271508D01*
X16282087Y-15271508D02*
X16263039Y-15242936D01*
X16263039Y-15242936D02*
X16253515Y-15233412D01*
D12*
X11082856Y-15669856D02*
X11082856Y-15599144D01*
X11012144Y-15599144D01*
X11012144Y-15669856D01*
X11082856Y-15669856D01*
D11*
X11463039Y-15725984D02*
X11348753Y-15725984D01*
X11405896Y-15725984D02*
X11405896Y-15525984D01*
X11405896Y-15525984D02*
X11386848Y-15554555D01*
X11386848Y-15554555D02*
X11367801Y-15573603D01*
X11367801Y-15573603D02*
X11348753Y-15583127D01*
X11548753Y-15706936D02*
X11558277Y-15716460D01*
X11558277Y-15716460D02*
X11548753Y-15725984D01*
X11548753Y-15725984D02*
X11539229Y-15716460D01*
X11539229Y-15716460D02*
X11548753Y-15706936D01*
X11548753Y-15706936D02*
X11548753Y-15725984D01*
X11682086Y-15525984D02*
X11701134Y-15525984D01*
X11701134Y-15525984D02*
X11720182Y-15535508D01*
X11720182Y-15535508D02*
X11729705Y-15545031D01*
X11729705Y-15545031D02*
X11739229Y-15564079D01*
X11739229Y-15564079D02*
X11748753Y-15602174D01*
X11748753Y-15602174D02*
X11748753Y-15649793D01*
X11748753Y-15649793D02*
X11739229Y-15687888D01*
X11739229Y-15687888D02*
X11729705Y-15706936D01*
X11729705Y-15706936D02*
X11720182Y-15716460D01*
X11720182Y-15716460D02*
X11701134Y-15725984D01*
X11701134Y-15725984D02*
X11682086Y-15725984D01*
X11682086Y-15725984D02*
X11663039Y-15716460D01*
X11663039Y-15716460D02*
X11653515Y-15706936D01*
X11653515Y-15706936D02*
X11643991Y-15687888D01*
X11643991Y-15687888D02*
X11634467Y-15649793D01*
X11634467Y-15649793D02*
X11634467Y-15602174D01*
X11634467Y-15602174D02*
X11643991Y-15564079D01*
X11643991Y-15564079D02*
X11653515Y-15545031D01*
X11653515Y-15545031D02*
X11663039Y-15535508D01*
X11663039Y-15535508D02*
X11682086Y-15525984D01*
X11872562Y-15525984D02*
X11891610Y-15525984D01*
X11891610Y-15525984D02*
X11910658Y-15535508D01*
X11910658Y-15535508D02*
X11920182Y-15545031D01*
X11920182Y-15545031D02*
X11929705Y-15564079D01*
X11929705Y-15564079D02*
X11939229Y-15602174D01*
X11939229Y-15602174D02*
X11939229Y-15649793D01*
X11939229Y-15649793D02*
X11929705Y-15687888D01*
X11929705Y-15687888D02*
X11920182Y-15706936D01*
X11920182Y-15706936D02*
X11910658Y-15716460D01*
X11910658Y-15716460D02*
X11891610Y-15725984D01*
X11891610Y-15725984D02*
X11872562Y-15725984D01*
X11872562Y-15725984D02*
X11853515Y-15716460D01*
X11853515Y-15716460D02*
X11843991Y-15706936D01*
X11843991Y-15706936D02*
X11834467Y-15687888D01*
X11834467Y-15687888D02*
X11824943Y-15649793D01*
X11824943Y-15649793D02*
X11824943Y-15602174D01*
X11824943Y-15602174D02*
X11834467Y-15564079D01*
X11834467Y-15564079D02*
X11843991Y-15545031D01*
X11843991Y-15545031D02*
X11853515Y-15535508D01*
X11853515Y-15535508D02*
X11872562Y-15525984D01*
X12063039Y-15525984D02*
X12082086Y-15525984D01*
X12082086Y-15525984D02*
X12101134Y-15535508D01*
X12101134Y-15535508D02*
X12110658Y-15545031D01*
X12110658Y-15545031D02*
X12120182Y-15564079D01*
X12120182Y-15564079D02*
X12129705Y-15602174D01*
X12129705Y-15602174D02*
X12129705Y-15649793D01*
X12129705Y-15649793D02*
X12120182Y-15687888D01*
X12120182Y-15687888D02*
X12110658Y-15706936D01*
X12110658Y-15706936D02*
X12101134Y-15716460D01*
X12101134Y-15716460D02*
X12082086Y-15725984D01*
X12082086Y-15725984D02*
X12063039Y-15725984D01*
X12063039Y-15725984D02*
X12043991Y-15716460D01*
X12043991Y-15716460D02*
X12034467Y-15706936D01*
X12034467Y-15706936D02*
X12024943Y-15687888D01*
X12024943Y-15687888D02*
X12015420Y-15649793D01*
X12015420Y-15649793D02*
X12015420Y-15602174D01*
X12015420Y-15602174D02*
X12024943Y-15564079D01*
X12024943Y-15564079D02*
X12034467Y-15545031D01*
X12034467Y-15545031D02*
X12043991Y-15535508D01*
X12043991Y-15535508D02*
X12063039Y-15525984D01*
X12215420Y-15725984D02*
X12215420Y-15592650D01*
X12215420Y-15611698D02*
X12224943Y-15602174D01*
X12224943Y-15602174D02*
X12243991Y-15592650D01*
X12243991Y-15592650D02*
X12272563Y-15592650D01*
X12272563Y-15592650D02*
X12291610Y-15602174D01*
X12291610Y-15602174D02*
X12301134Y-15621222D01*
X12301134Y-15621222D02*
X12301134Y-15725984D01*
X12301134Y-15621222D02*
X12310658Y-15602174D01*
X12310658Y-15602174D02*
X12329705Y-15592650D01*
X12329705Y-15592650D02*
X12358277Y-15592650D01*
X12358277Y-15592650D02*
X12377324Y-15602174D01*
X12377324Y-15602174D02*
X12386848Y-15621222D01*
X12386848Y-15621222D02*
X12386848Y-15725984D01*
X12482086Y-15725984D02*
X12482086Y-15592650D01*
X12482086Y-15611698D02*
X12491610Y-15602174D01*
X12491610Y-15602174D02*
X12510658Y-15592650D01*
X12510658Y-15592650D02*
X12539229Y-15592650D01*
X12539229Y-15592650D02*
X12558277Y-15602174D01*
X12558277Y-15602174D02*
X12567801Y-15621222D01*
X12567801Y-15621222D02*
X12567801Y-15725984D01*
X12567801Y-15621222D02*
X12577324Y-15602174D01*
X12577324Y-15602174D02*
X12596372Y-15592650D01*
X12596372Y-15592650D02*
X12624943Y-15592650D01*
X12624943Y-15592650D02*
X12643991Y-15602174D01*
X12643991Y-15602174D02*
X12653515Y-15621222D01*
X12653515Y-15621222D02*
X12653515Y-15725984D01*
X13043991Y-15516460D02*
X12872563Y-15773603D01*
X13301134Y-15525984D02*
X13320182Y-15525984D01*
X13320182Y-15525984D02*
X13339229Y-15535508D01*
X13339229Y-15535508D02*
X13348753Y-15545031D01*
X13348753Y-15545031D02*
X13358277Y-15564079D01*
X13358277Y-15564079D02*
X13367801Y-15602174D01*
X13367801Y-15602174D02*
X13367801Y-15649793D01*
X13367801Y-15649793D02*
X13358277Y-15687888D01*
X13358277Y-15687888D02*
X13348753Y-15706936D01*
X13348753Y-15706936D02*
X13339229Y-15716460D01*
X13339229Y-15716460D02*
X13320182Y-15725984D01*
X13320182Y-15725984D02*
X13301134Y-15725984D01*
X13301134Y-15725984D02*
X13282086Y-15716460D01*
X13282086Y-15716460D02*
X13272563Y-15706936D01*
X13272563Y-15706936D02*
X13263039Y-15687888D01*
X13263039Y-15687888D02*
X13253515Y-15649793D01*
X13253515Y-15649793D02*
X13253515Y-15602174D01*
X13253515Y-15602174D02*
X13263039Y-15564079D01*
X13263039Y-15564079D02*
X13272563Y-15545031D01*
X13272563Y-15545031D02*
X13282086Y-15535508D01*
X13282086Y-15535508D02*
X13301134Y-15525984D01*
X13453515Y-15706936D02*
X13463039Y-15716460D01*
X13463039Y-15716460D02*
X13453515Y-15725984D01*
X13453515Y-15725984D02*
X13443991Y-15716460D01*
X13443991Y-15716460D02*
X13453515Y-15706936D01*
X13453515Y-15706936D02*
X13453515Y-15725984D01*
X13586848Y-15525984D02*
X13605896Y-15525984D01*
X13605896Y-15525984D02*
X13624944Y-15535508D01*
X13624944Y-15535508D02*
X13634467Y-15545031D01*
X13634467Y-15545031D02*
X13643991Y-15564079D01*
X13643991Y-15564079D02*
X13653515Y-15602174D01*
X13653515Y-15602174D02*
X13653515Y-15649793D01*
X13653515Y-15649793D02*
X13643991Y-15687888D01*
X13643991Y-15687888D02*
X13634467Y-15706936D01*
X13634467Y-15706936D02*
X13624944Y-15716460D01*
X13624944Y-15716460D02*
X13605896Y-15725984D01*
X13605896Y-15725984D02*
X13586848Y-15725984D01*
X13586848Y-15725984D02*
X13567801Y-15716460D01*
X13567801Y-15716460D02*
X13558277Y-15706936D01*
X13558277Y-15706936D02*
X13548753Y-15687888D01*
X13548753Y-15687888D02*
X13539229Y-15649793D01*
X13539229Y-15649793D02*
X13539229Y-15602174D01*
X13539229Y-15602174D02*
X13548753Y-15564079D01*
X13548753Y-15564079D02*
X13558277Y-15545031D01*
X13558277Y-15545031D02*
X13567801Y-15535508D01*
X13567801Y-15535508D02*
X13586848Y-15525984D01*
X13720182Y-15525984D02*
X13843991Y-15525984D01*
X13843991Y-15525984D02*
X13777325Y-15602174D01*
X13777325Y-15602174D02*
X13805896Y-15602174D01*
X13805896Y-15602174D02*
X13824944Y-15611698D01*
X13824944Y-15611698D02*
X13834467Y-15621222D01*
X13834467Y-15621222D02*
X13843991Y-15640269D01*
X13843991Y-15640269D02*
X13843991Y-15687888D01*
X13843991Y-15687888D02*
X13834467Y-15706936D01*
X13834467Y-15706936D02*
X13824944Y-15716460D01*
X13824944Y-15716460D02*
X13805896Y-15725984D01*
X13805896Y-15725984D02*
X13748753Y-15725984D01*
X13748753Y-15725984D02*
X13729706Y-15716460D01*
X13729706Y-15716460D02*
X13720182Y-15706936D01*
X13939229Y-15725984D02*
X13977325Y-15725984D01*
X13977325Y-15725984D02*
X13996372Y-15716460D01*
X13996372Y-15716460D02*
X14005896Y-15706936D01*
X14005896Y-15706936D02*
X14024944Y-15678365D01*
X14024944Y-15678365D02*
X14034467Y-15640269D01*
X14034467Y-15640269D02*
X14034467Y-15564079D01*
X14034467Y-15564079D02*
X14024944Y-15545031D01*
X14024944Y-15545031D02*
X14015420Y-15535508D01*
X14015420Y-15535508D02*
X13996372Y-15525984D01*
X13996372Y-15525984D02*
X13958277Y-15525984D01*
X13958277Y-15525984D02*
X13939229Y-15535508D01*
X13939229Y-15535508D02*
X13929706Y-15545031D01*
X13929706Y-15545031D02*
X13920182Y-15564079D01*
X13920182Y-15564079D02*
X13920182Y-15611698D01*
X13920182Y-15611698D02*
X13929706Y-15630746D01*
X13929706Y-15630746D02*
X13939229Y-15640269D01*
X13939229Y-15640269D02*
X13958277Y-15649793D01*
X13958277Y-15649793D02*
X13996372Y-15649793D01*
X13996372Y-15649793D02*
X14015420Y-15640269D01*
X14015420Y-15640269D02*
X14024944Y-15630746D01*
X14024944Y-15630746D02*
X14034467Y-15611698D01*
X14205896Y-15592650D02*
X14205896Y-15725984D01*
X14158277Y-15516460D02*
X14110658Y-15659317D01*
X14110658Y-15659317D02*
X14234467Y-15659317D01*
X14301134Y-15525984D02*
X14301134Y-15564079D01*
X14377325Y-15525984D02*
X14377325Y-15564079D01*
X14672563Y-15802174D02*
X14663039Y-15792650D01*
X14663039Y-15792650D02*
X14643991Y-15764079D01*
X14643991Y-15764079D02*
X14634468Y-15745031D01*
X14634468Y-15745031D02*
X14624944Y-15716460D01*
X14624944Y-15716460D02*
X14615420Y-15668841D01*
X14615420Y-15668841D02*
X14615420Y-15630746D01*
X14615420Y-15630746D02*
X14624944Y-15583127D01*
X14624944Y-15583127D02*
X14634468Y-15554555D01*
X14634468Y-15554555D02*
X14643991Y-15535508D01*
X14643991Y-15535508D02*
X14663039Y-15506936D01*
X14663039Y-15506936D02*
X14672563Y-15497412D01*
X14758277Y-15725984D02*
X14796372Y-15725984D01*
X14796372Y-15725984D02*
X14815420Y-15716460D01*
X14815420Y-15716460D02*
X14824944Y-15706936D01*
X14824944Y-15706936D02*
X14843991Y-15678365D01*
X14843991Y-15678365D02*
X14853515Y-15640269D01*
X14853515Y-15640269D02*
X14853515Y-15564079D01*
X14853515Y-15564079D02*
X14843991Y-15545031D01*
X14843991Y-15545031D02*
X14834468Y-15535508D01*
X14834468Y-15535508D02*
X14815420Y-15525984D01*
X14815420Y-15525984D02*
X14777325Y-15525984D01*
X14777325Y-15525984D02*
X14758277Y-15535508D01*
X14758277Y-15535508D02*
X14748753Y-15545031D01*
X14748753Y-15545031D02*
X14739229Y-15564079D01*
X14739229Y-15564079D02*
X14739229Y-15611698D01*
X14739229Y-15611698D02*
X14748753Y-15630746D01*
X14748753Y-15630746D02*
X14758277Y-15640269D01*
X14758277Y-15640269D02*
X14777325Y-15649793D01*
X14777325Y-15649793D02*
X14815420Y-15649793D01*
X14815420Y-15649793D02*
X14834468Y-15640269D01*
X14834468Y-15640269D02*
X14843991Y-15630746D01*
X14843991Y-15630746D02*
X14853515Y-15611698D01*
X14920182Y-15525984D02*
X15043991Y-15525984D01*
X15043991Y-15525984D02*
X14977325Y-15602174D01*
X14977325Y-15602174D02*
X15005896Y-15602174D01*
X15005896Y-15602174D02*
X15024944Y-15611698D01*
X15024944Y-15611698D02*
X15034468Y-15621222D01*
X15034468Y-15621222D02*
X15043991Y-15640269D01*
X15043991Y-15640269D02*
X15043991Y-15687888D01*
X15043991Y-15687888D02*
X15034468Y-15706936D01*
X15034468Y-15706936D02*
X15024944Y-15716460D01*
X15024944Y-15716460D02*
X15005896Y-15725984D01*
X15005896Y-15725984D02*
X14948753Y-15725984D01*
X14948753Y-15725984D02*
X14929706Y-15716460D01*
X14929706Y-15716460D02*
X14920182Y-15706936D01*
X15282087Y-15725984D02*
X15282087Y-15525984D01*
X15367801Y-15725984D02*
X15367801Y-15621222D01*
X15367801Y-15621222D02*
X15358277Y-15602174D01*
X15358277Y-15602174D02*
X15339230Y-15592650D01*
X15339230Y-15592650D02*
X15310658Y-15592650D01*
X15310658Y-15592650D02*
X15291610Y-15602174D01*
X15291610Y-15602174D02*
X15282087Y-15611698D01*
X15491610Y-15725984D02*
X15472563Y-15716460D01*
X15472563Y-15716460D02*
X15463039Y-15706936D01*
X15463039Y-15706936D02*
X15453515Y-15687888D01*
X15453515Y-15687888D02*
X15453515Y-15630746D01*
X15453515Y-15630746D02*
X15463039Y-15611698D01*
X15463039Y-15611698D02*
X15472563Y-15602174D01*
X15472563Y-15602174D02*
X15491610Y-15592650D01*
X15491610Y-15592650D02*
X15520182Y-15592650D01*
X15520182Y-15592650D02*
X15539230Y-15602174D01*
X15539230Y-15602174D02*
X15548753Y-15611698D01*
X15548753Y-15611698D02*
X15558277Y-15630746D01*
X15558277Y-15630746D02*
X15558277Y-15687888D01*
X15558277Y-15687888D02*
X15548753Y-15706936D01*
X15548753Y-15706936D02*
X15539230Y-15716460D01*
X15539230Y-15716460D02*
X15520182Y-15725984D01*
X15520182Y-15725984D02*
X15491610Y-15725984D01*
X15672563Y-15725984D02*
X15653515Y-15716460D01*
X15653515Y-15716460D02*
X15643991Y-15697412D01*
X15643991Y-15697412D02*
X15643991Y-15525984D01*
X15824944Y-15716460D02*
X15805896Y-15725984D01*
X15805896Y-15725984D02*
X15767801Y-15725984D01*
X15767801Y-15725984D02*
X15748753Y-15716460D01*
X15748753Y-15716460D02*
X15739230Y-15697412D01*
X15739230Y-15697412D02*
X15739230Y-15621222D01*
X15739230Y-15621222D02*
X15748753Y-15602174D01*
X15748753Y-15602174D02*
X15767801Y-15592650D01*
X15767801Y-15592650D02*
X15805896Y-15592650D01*
X15805896Y-15592650D02*
X15824944Y-15602174D01*
X15824944Y-15602174D02*
X15834468Y-15621222D01*
X15834468Y-15621222D02*
X15834468Y-15640269D01*
X15834468Y-15640269D02*
X15739230Y-15659317D01*
X15910658Y-15716460D02*
X15929706Y-15725984D01*
X15929706Y-15725984D02*
X15967801Y-15725984D01*
X15967801Y-15725984D02*
X15986849Y-15716460D01*
X15986849Y-15716460D02*
X15996372Y-15697412D01*
X15996372Y-15697412D02*
X15996372Y-15687888D01*
X15996372Y-15687888D02*
X15986849Y-15668841D01*
X15986849Y-15668841D02*
X15967801Y-15659317D01*
X15967801Y-15659317D02*
X15939230Y-15659317D01*
X15939230Y-15659317D02*
X15920182Y-15649793D01*
X15920182Y-15649793D02*
X15910658Y-15630746D01*
X15910658Y-15630746D02*
X15910658Y-15621222D01*
X15910658Y-15621222D02*
X15920182Y-15602174D01*
X15920182Y-15602174D02*
X15939230Y-15592650D01*
X15939230Y-15592650D02*
X15967801Y-15592650D01*
X15967801Y-15592650D02*
X15986849Y-15602174D01*
X16063039Y-15802174D02*
X16072563Y-15792650D01*
X16072563Y-15792650D02*
X16091611Y-15764079D01*
X16091611Y-15764079D02*
X16101134Y-15745031D01*
X16101134Y-15745031D02*
X16110658Y-15716460D01*
X16110658Y-15716460D02*
X16120182Y-15668841D01*
X16120182Y-15668841D02*
X16120182Y-15630746D01*
X16120182Y-15630746D02*
X16110658Y-15583127D01*
X16110658Y-15583127D02*
X16101134Y-15554555D01*
X16101134Y-15554555D02*
X16091611Y-15535508D01*
X16091611Y-15535508D02*
X16072563Y-15506936D01*
X16072563Y-15506936D02*
X16063039Y-15497412D01*
M02*
