M48
; DRILL file {KiCad 8.0.3} date 2024-06-19T22:00:37+1200
; FORMAT={-:-/ absolute / metric / decimal}
; #@! TF.CreationDate,2024-06-19T22:00:37+12:00
; #@! TF.GenerationSoftware,Kicad,Pcbnew,8.0.3
; #@! TF.FileFunction,Plated,1,2,PTH
FMAT,2
METRIC
; #@! TA.AperFunction,Plated,PTH,ViaDrill
T1C0.300
; #@! TA.AperFunction,Plated,PTH,ViaDrill
T2C0.500
; #@! TA.AperFunction,Plated,PTH,ComponentDrill
T3C0.800
; #@! TA.AperFunction,Plated,PTH,ComponentDrill
T4C1.000
%
G90
G05
T1
X117.4Y-133.8
X122.0Y-127.2
X122.0Y-129.0
X127.0Y-127.2
X127.0Y-129.0
X129.6Y-127.2
X129.6Y-129.0
X132.2Y-127.0
X132.2Y-129.0
X137.76Y-109.11
X139.01Y-110.38
X142.6Y-134.0
X142.6Y-136.2
X144.3Y-130.4
X146.0Y-130.4
X155.2Y-135.6
X157.7Y-127.1
X157.7Y-129.0
X162.84Y-111.06
X164.1Y-109.99
X164.18Y-112.48
X165.28Y-111.2
X169.3Y-130.1
X171.4Y-130.1
X182.9Y-127.1
X182.9Y-128.9
T2
X115.6Y-91.4
X115.6Y-97.3
T3
X115.555Y-107.2
X116.83Y-111.58
X116.83Y-119.2
X116.83Y-124.2
X116.83Y-131.82
X118.095Y-107.2
X119.37Y-111.58
X119.37Y-119.2
X119.37Y-124.2
X119.37Y-131.82
X120.635Y-107.2
X121.91Y-111.58
X121.91Y-119.2
X121.91Y-124.2
X121.91Y-131.82
X123.175Y-107.2
X124.45Y-111.58
X124.45Y-119.2
X124.45Y-124.2
X124.45Y-131.82
X125.4Y-69.71
X125.715Y-107.2
X126.99Y-111.58
X126.99Y-119.2
X126.99Y-124.2
X126.99Y-131.82
X128.255Y-107.2
X129.53Y-111.58
X129.53Y-119.2
X129.53Y-124.2
X129.53Y-131.82
X130.795Y-107.2
X132.07Y-111.58
X132.07Y-119.2
X132.07Y-124.2
X132.07Y-131.82
X133.335Y-107.2
X134.61Y-111.58
X134.61Y-119.2
X134.61Y-124.2
X134.61Y-131.82
X135.56Y-69.71
X135.875Y-107.2
X140.955Y-107.2
X142.23Y-111.58
X142.23Y-119.2
X142.56Y-124.4
X142.56Y-132.02
X143.495Y-107.2
X144.77Y-111.58
X144.77Y-119.2
X145.1Y-124.4
X145.1Y-132.02
X146.035Y-107.2
X147.31Y-111.58
X147.31Y-119.2
X147.64Y-124.4
X147.64Y-132.02
X148.575Y-107.2
X149.85Y-111.58
X149.85Y-119.2
X150.18Y-124.4
X150.18Y-132.02
X151.115Y-107.2
X152.39Y-111.58
X152.39Y-119.2
X152.72Y-124.4
X152.72Y-132.02
X153.655Y-107.2
X154.93Y-111.58
X154.93Y-119.2
X155.26Y-124.4
X155.26Y-132.02
X156.195Y-107.2
X157.47Y-111.58
X157.47Y-119.2
X157.8Y-124.4
X157.8Y-132.02
X158.735Y-107.2
X160.01Y-111.58
X160.01Y-119.2
X160.34Y-124.4
X160.34Y-132.02
X161.275Y-107.2
X166.355Y-107.2
X167.63Y-111.58
X167.63Y-119.2
X167.63Y-124.2
X167.63Y-131.82
X168.895Y-107.2
X170.17Y-111.58
X170.17Y-119.2
X170.17Y-124.2
X170.17Y-131.82
X171.435Y-107.2
X172.71Y-111.58
X172.71Y-119.2
X172.71Y-124.2
X172.71Y-131.82
X173.975Y-107.2
X175.25Y-111.58
X175.25Y-119.2
X175.25Y-124.2
X175.25Y-131.82
X176.515Y-107.2
X177.79Y-111.58
X177.79Y-119.2
X177.79Y-124.2
X177.79Y-131.82
X179.055Y-107.2
X180.33Y-111.58
X180.33Y-119.2
X180.33Y-124.2
X180.33Y-131.82
X181.595Y-107.2
X182.87Y-111.58
X182.87Y-119.2
X182.87Y-124.2
X182.87Y-131.82
X184.135Y-107.2
X185.41Y-111.58
X185.41Y-119.2
X185.41Y-124.2
X185.41Y-131.82
X186.675Y-107.2
T4
X113.215Y-52.31
X118.255Y-70.21
X119.38Y-98.425
X121.605Y-52.31
X121.605Y-70.21
X121.92Y-98.425
X124.46Y-98.425
X125.1Y-54.33
X127.0Y-98.425
X127.64Y-54.33
X129.54Y-98.425
X130.18Y-54.33
X132.08Y-98.425
X132.72Y-54.33
X134.62Y-98.425
X135.26Y-54.33
X137.16Y-98.425
X139.7Y-98.425
X140.48Y-53.65
X140.48Y-68.89
X140.955Y-57.45
X140.955Y-59.99
X140.955Y-62.53
X140.955Y-65.07
X142.24Y-98.425
X143.02Y-53.65
X143.02Y-68.89
X144.29Y-57.46
X144.29Y-60.0
X144.29Y-62.54
X144.29Y-65.08
X144.78Y-98.425
X145.56Y-53.65
X145.56Y-68.89
X147.32Y-98.425
X148.1Y-53.65
X148.1Y-68.89
X149.86Y-98.425
X150.64Y-53.65
X150.64Y-68.89
X152.4Y-98.425
X153.18Y-53.65
X153.18Y-68.89
X154.94Y-98.425
X155.72Y-53.65
X155.72Y-68.89
X157.48Y-98.425
X158.24Y-48.71
X158.26Y-53.65
X158.26Y-68.89
X160.02Y-98.425
X160.78Y-48.71
X160.8Y-53.65
X160.8Y-68.89
X162.56Y-98.425
X163.32Y-48.71
X163.34Y-53.65
X163.34Y-68.89
X165.1Y-98.425
X165.86Y-48.71
X165.88Y-53.65
X165.88Y-68.89
X167.64Y-98.425
X168.4Y-48.71
X168.42Y-53.65
X168.42Y-68.89
X170.18Y-98.425
X170.94Y-48.71
X170.96Y-53.65
X170.96Y-68.89
X172.72Y-98.425
X173.48Y-48.71
X173.5Y-53.65
X173.5Y-68.89
X175.26Y-98.425
X176.02Y-48.71
X176.04Y-53.65
X176.04Y-68.89
X177.8Y-98.425
X178.56Y-48.71
X178.58Y-53.65
X178.58Y-68.89
X180.34Y-98.425
X181.1Y-48.71
X181.12Y-53.65
X181.12Y-68.89
X182.88Y-98.425
X183.66Y-53.65
X183.66Y-68.89
X186.2Y-53.65
X186.2Y-68.89
X188.74Y-53.65
X188.74Y-68.89
M30
