M48
; DRILL file {KiCad 8.0.3} date 2024-06-07T18:19:56+1200
; FORMAT={-:-/ absolute / metric / decimal}
; #@! TF.CreationDate,2024-06-07T18:19:56+12:00
; #@! TF.GenerationSoftware,Kicad,Pcbnew,8.0.3
; #@! TF.FileFunction,Plated,1,2,PTH
FMAT,2
METRIC
; #@! TA.AperFunction,Plated,PTH,ViaDrill
T1C0.300
; #@! TA.AperFunction,Plated,PTH,ViaDrill
T2C0.500
; #@! TA.AperFunction,Plated,PTH,ComponentDrill
T3C0.800
; #@! TA.AperFunction,Plated,PTH,ComponentDrill
T4C1.000
%
G90
G05
T1
X117.4Y-133.8
X122.0Y-127.2
X122.0Y-129.0
X127.0Y-127.2
X127.0Y-129.0
X129.6Y-127.2
X129.6Y-129.0
X132.2Y-127.0
X132.2Y-129.0
X134.75Y-56.0
X142.6Y-134.0
X142.6Y-136.2
X144.3Y-130.4
X146.0Y-130.4
X155.2Y-135.6
X157.7Y-127.1
X157.7Y-129.0
X169.3Y-130.1
X171.4Y-130.1
X182.9Y-127.1
X182.9Y-128.9
T2
X115.6Y-91.4
X115.6Y-97.3
X164.6Y-100.7
T3
X115.555Y-107.2
X116.83Y-111.58
X116.83Y-119.2
X116.83Y-124.2
X116.83Y-131.82
X118.095Y-107.2
X119.37Y-111.58
X119.37Y-119.2
X119.37Y-124.2
X119.37Y-131.82
X120.635Y-107.2
X121.91Y-111.58
X121.91Y-119.2
X121.91Y-124.2
X121.91Y-131.82
X123.175Y-107.2
X124.45Y-111.58
X124.45Y-119.2
X124.45Y-124.2
X124.45Y-131.82
X124.72Y-69.4
X125.715Y-107.2
X126.99Y-111.58
X126.99Y-119.2
X126.99Y-124.2
X126.99Y-131.82
X128.255Y-107.2
X129.53Y-111.58
X129.53Y-119.2
X129.53Y-124.2
X129.53Y-131.82
X130.795Y-107.2
X132.07Y-111.58
X132.07Y-119.2
X132.07Y-124.2
X132.07Y-131.82
X133.335Y-107.2
X134.61Y-111.58
X134.61Y-119.2
X134.61Y-124.2
X134.61Y-131.82
X134.88Y-69.4
X135.875Y-107.2
X140.955Y-107.2
X142.23Y-111.58
X142.23Y-119.2
X142.56Y-124.4
X142.56Y-132.02
X143.495Y-107.2
X144.77Y-111.58
X144.77Y-119.2
X145.1Y-124.4
X145.1Y-132.02
X146.035Y-107.2
X147.31Y-111.58
X147.31Y-119.2
X147.64Y-124.4
X147.64Y-132.02
X148.575Y-107.2
X149.85Y-111.58
X149.85Y-119.2
X150.18Y-124.4
X150.18Y-132.02
X151.115Y-107.2
X152.39Y-111.58
X152.39Y-119.2
X152.72Y-124.4
X152.72Y-132.02
X153.655Y-107.2
X154.93Y-111.58
X154.93Y-119.2
X155.26Y-124.4
X155.26Y-132.02
X156.195Y-107.2
X157.47Y-111.58
X157.47Y-119.2
X157.8Y-124.4
X157.8Y-132.02
X158.735Y-107.2
X160.01Y-111.58
X160.01Y-119.2
X160.34Y-124.4
X160.34Y-132.02
X161.275Y-107.2
X166.355Y-107.2
X167.63Y-111.58
X167.63Y-119.2
X167.63Y-124.2
X167.63Y-131.82
X168.895Y-107.2
X170.17Y-111.58
X170.17Y-119.2
X170.17Y-124.2
X170.17Y-131.82
X171.435Y-107.2
X172.71Y-111.58
X172.71Y-119.2
X172.71Y-124.2
X172.71Y-131.82
X173.975Y-107.2
X175.25Y-111.58
X175.25Y-119.2
X175.25Y-124.2
X175.25Y-131.82
X176.515Y-107.2
X177.79Y-111.58
X177.79Y-119.2
X177.79Y-124.2
X177.79Y-131.82
X179.055Y-107.2
X180.33Y-111.58
X180.33Y-119.2
X180.33Y-124.2
X180.33Y-131.82
X181.595Y-107.2
X182.87Y-111.58
X182.87Y-119.2
X182.87Y-124.2
X182.87Y-131.82
X184.135Y-107.2
X185.41Y-111.58
X185.41Y-119.2
X185.41Y-124.2
X185.41Y-131.82
X186.675Y-107.2
T4
X115.18Y-52.155
X117.72Y-69.935
X119.38Y-98.425
X120.26Y-52.155
X120.26Y-69.935
X121.92Y-98.425
X124.46Y-98.425
X124.84Y-54.0
X127.0Y-98.425
X127.38Y-54.0
X129.54Y-98.425
X129.92Y-54.0
X132.08Y-98.425
X132.46Y-54.0
X134.62Y-98.425
X135.0Y-54.0
X137.16Y-98.425
X139.7Y-98.425
X139.82Y-53.36
X139.82Y-68.6
X142.24Y-98.425
X142.36Y-53.36
X142.36Y-68.6
X144.78Y-98.425
X144.9Y-53.36
X144.9Y-68.6
X147.32Y-98.425
X147.44Y-53.36
X147.44Y-68.6
X149.86Y-98.425
X149.98Y-53.36
X149.98Y-68.6
X152.4Y-98.425
X152.52Y-53.36
X152.52Y-68.6
X154.94Y-98.425
X155.06Y-53.36
X155.06Y-68.6
X157.48Y-98.425
X157.6Y-48.0
X157.6Y-53.36
X157.6Y-68.6
X160.02Y-98.425
X160.14Y-48.0
X160.14Y-53.36
X160.14Y-68.6
X162.56Y-98.425
X162.68Y-48.0
X162.68Y-53.36
X162.68Y-68.6
X165.1Y-98.425
X165.22Y-48.0
X165.22Y-53.36
X165.22Y-68.6
X167.64Y-98.425
X167.76Y-48.0
X167.76Y-53.36
X167.76Y-68.6
X170.18Y-98.425
X170.3Y-48.0
X170.3Y-53.36
X170.3Y-68.6
X172.72Y-98.425
X172.84Y-48.0
X172.84Y-53.36
X172.84Y-68.6
X175.26Y-98.425
X175.38Y-48.0
X175.38Y-53.36
X175.38Y-68.6
X177.8Y-98.425
X177.92Y-48.0
X177.92Y-53.36
X177.92Y-68.6
X180.34Y-98.425
X180.46Y-48.0
X180.46Y-53.36
X180.46Y-68.6
X182.88Y-98.425
X183.0Y-53.36
X183.0Y-68.6
X185.54Y-53.36
X185.54Y-68.6
X188.08Y-53.36
X188.08Y-68.6
M30
