%TF.GenerationSoftware,KiCad,Pcbnew,8.0.3*%
%TF.CreationDate,2024-06-07T18:19:59+12:00*%
%TF.ProjectId,OperationBaldr,4f706572-6174-4696-9f6e-42616c64722e,rev?*%
%TF.SameCoordinates,Original*%
%TF.FileFunction,Soldermask,Bot*%
%TF.FilePolarity,Negative*%
%FSLAX46Y46*%
G04 Gerber Fmt 4.6, Leading zero omitted, Abs format (unit mm)*
G04 Created by KiCad (PCBNEW 8.0.3) date 2024-06-07 18:19:59*
%MOMM*%
%LPD*%
G01*
G04 APERTURE LIST*
%ADD10R,1.700000X1.700000*%
%ADD11O,1.700000X1.700000*%
%ADD12C,1.700000*%
%ADD13C,3.200000*%
%ADD14R,1.600000X1.600000*%
%ADD15O,1.600000X1.600000*%
%ADD16C,1.600000*%
G04 APERTURE END LIST*
D10*
%TO.C,J1*%
X180460000Y-48000000D03*
D11*
X177920000Y-48000000D03*
X175380000Y-48000000D03*
X172840000Y-48000000D03*
X170300000Y-48000000D03*
X167760000Y-48000000D03*
X165220000Y-48000000D03*
X162680000Y-48000000D03*
X160140000Y-48000000D03*
X157600000Y-48000000D03*
%TD*%
D12*
%TO.C,U3*%
X135000000Y-54000000D03*
X132460000Y-54000000D03*
X129920000Y-54000000D03*
X127380000Y-54000000D03*
X124840000Y-54000000D03*
%TD*%
D13*
%TO.C,H1*%
X115000000Y-46000000D03*
%TD*%
D14*
%TO.C,U4*%
X116830000Y-119200000D03*
D15*
X119370000Y-119200000D03*
X121910000Y-119200000D03*
X124450000Y-119200000D03*
X126990000Y-119200000D03*
X129530000Y-119200000D03*
X132070000Y-119200000D03*
X134610000Y-119200000D03*
X134610000Y-111580000D03*
X132070000Y-111580000D03*
X129530000Y-111580000D03*
X126990000Y-111580000D03*
X124450000Y-111580000D03*
X121910000Y-111580000D03*
X119370000Y-111580000D03*
X116830000Y-111580000D03*
%TD*%
D13*
%TO.C,H2*%
X187000000Y-46000000D03*
%TD*%
D16*
%TO.C,U10*%
X119380000Y-98425000D03*
X121920000Y-98425000D03*
X124460000Y-98425000D03*
X127000000Y-98425000D03*
X129540000Y-98425000D03*
X132080000Y-98425000D03*
X134620000Y-98425000D03*
X137160000Y-98425000D03*
X139700000Y-98425000D03*
X142240000Y-98425000D03*
X144780000Y-98425000D03*
X147320000Y-98425000D03*
X149860000Y-98425000D03*
X152400000Y-98425000D03*
X154940000Y-98425000D03*
X157480000Y-98425000D03*
X160020000Y-98425000D03*
X162560000Y-98425000D03*
X165100000Y-98425000D03*
X167640000Y-98425000D03*
X170180000Y-98425000D03*
X172720000Y-98425000D03*
X175260000Y-98425000D03*
X177800000Y-98425000D03*
X180340000Y-98425000D03*
X182880000Y-98425000D03*
%TD*%
%TO.C,R3*%
X134880000Y-69400000D03*
D15*
X124720000Y-69400000D03*
%TD*%
D14*
%TO.C,U8*%
X185410000Y-124200000D03*
D15*
X182870000Y-124200000D03*
X180330000Y-124200000D03*
X177790000Y-124200000D03*
X175250000Y-124200000D03*
X172710000Y-124200000D03*
X170170000Y-124200000D03*
X167630000Y-124200000D03*
X167630000Y-131820000D03*
X170170000Y-131820000D03*
X172710000Y-131820000D03*
X175250000Y-131820000D03*
X177790000Y-131820000D03*
X180330000Y-131820000D03*
X182870000Y-131820000D03*
X185410000Y-131820000D03*
%TD*%
D12*
%TO.C,U2*%
X188080000Y-53360000D03*
X185540000Y-53360000D03*
X183000000Y-53360000D03*
X180460000Y-53360000D03*
X177920000Y-53360000D03*
X175380000Y-53360000D03*
X172840000Y-53360000D03*
X170300000Y-53360000D03*
X167760000Y-53360000D03*
X165220000Y-53360000D03*
X162680000Y-53360000D03*
X160140000Y-53360000D03*
X157600000Y-53360000D03*
X155060000Y-53360000D03*
X152520000Y-53360000D03*
X149980000Y-53360000D03*
X147440000Y-53360000D03*
X144900000Y-53360000D03*
X142360000Y-53360000D03*
X139820000Y-53360000D03*
X142360000Y-68600000D03*
X144900000Y-68600000D03*
X147440000Y-68600000D03*
X149980000Y-68600000D03*
X152520000Y-68600000D03*
X155060000Y-68600000D03*
X157600000Y-68600000D03*
X160140000Y-68600000D03*
X162680000Y-68600000D03*
X165220000Y-68600000D03*
X167760000Y-68600000D03*
X170300000Y-68600000D03*
X172840000Y-68600000D03*
X175380000Y-68600000D03*
X177920000Y-68600000D03*
X180460000Y-68600000D03*
X183000000Y-68600000D03*
X185540000Y-68600000D03*
X188080000Y-68600000D03*
X139820000Y-68600000D03*
%TD*%
D13*
%TO.C,H3*%
X115000000Y-138000000D03*
%TD*%
D14*
%TO.C,RN3*%
X115555000Y-107200000D03*
D15*
X118095000Y-107200000D03*
X120635000Y-107200000D03*
X123175000Y-107200000D03*
X125715000Y-107200000D03*
X128255000Y-107200000D03*
X130795000Y-107200000D03*
X133335000Y-107200000D03*
X135875000Y-107200000D03*
%TD*%
D14*
%TO.C,U5*%
X142230000Y-119200000D03*
D15*
X144770000Y-119200000D03*
X147310000Y-119200000D03*
X149850000Y-119200000D03*
X152390000Y-119200000D03*
X154930000Y-119200000D03*
X157470000Y-119200000D03*
X160010000Y-119200000D03*
X160010000Y-111580000D03*
X157470000Y-111580000D03*
X154930000Y-111580000D03*
X152390000Y-111580000D03*
X149850000Y-111580000D03*
X147310000Y-111580000D03*
X144770000Y-111580000D03*
X142230000Y-111580000D03*
%TD*%
D14*
%TO.C,RN1*%
X166355000Y-107200000D03*
D15*
X168895000Y-107200000D03*
X171435000Y-107200000D03*
X173975000Y-107200000D03*
X176515000Y-107200000D03*
X179055000Y-107200000D03*
X181595000Y-107200000D03*
X184135000Y-107200000D03*
X186675000Y-107200000D03*
%TD*%
D14*
%TO.C,U6*%
X134610000Y-124200000D03*
D15*
X132070000Y-124200000D03*
X129530000Y-124200000D03*
X126990000Y-124200000D03*
X124450000Y-124200000D03*
X121910000Y-124200000D03*
X119370000Y-124200000D03*
X116830000Y-124200000D03*
X116830000Y-131820000D03*
X119370000Y-131820000D03*
X121910000Y-131820000D03*
X124450000Y-131820000D03*
X126990000Y-131820000D03*
X129530000Y-131820000D03*
X132070000Y-131820000D03*
X134610000Y-131820000D03*
%TD*%
D12*
%TO.C,U1*%
X117720000Y-69935000D03*
X120260000Y-69935000D03*
X120260000Y-52155000D03*
X115180000Y-52155000D03*
%TD*%
D14*
%TO.C,U7*%
X160340000Y-124400000D03*
D15*
X157800000Y-124400000D03*
X155260000Y-124400000D03*
X152720000Y-124400000D03*
X150180000Y-124400000D03*
X147640000Y-124400000D03*
X145100000Y-124400000D03*
X142560000Y-124400000D03*
X142560000Y-132020000D03*
X145100000Y-132020000D03*
X147640000Y-132020000D03*
X150180000Y-132020000D03*
X152720000Y-132020000D03*
X155260000Y-132020000D03*
X157800000Y-132020000D03*
X160340000Y-132020000D03*
%TD*%
D13*
%TO.C,H4*%
X187000000Y-138000000D03*
%TD*%
D14*
%TO.C,U9*%
X167630000Y-119200000D03*
D15*
X170170000Y-119200000D03*
X172710000Y-119200000D03*
X175250000Y-119200000D03*
X177790000Y-119200000D03*
X180330000Y-119200000D03*
X182870000Y-119200000D03*
X185410000Y-119200000D03*
X185410000Y-111580000D03*
X182870000Y-111580000D03*
X180330000Y-111580000D03*
X177790000Y-111580000D03*
X175250000Y-111580000D03*
X172710000Y-111580000D03*
X170170000Y-111580000D03*
X167630000Y-111580000D03*
%TD*%
D14*
%TO.C,RN2*%
X140955000Y-107200000D03*
D15*
X143495000Y-107200000D03*
X146035000Y-107200000D03*
X148575000Y-107200000D03*
X151115000Y-107200000D03*
X153655000Y-107200000D03*
X156195000Y-107200000D03*
X158735000Y-107200000D03*
X161275000Y-107200000D03*
%TD*%
M02*
