%TF.GenerationSoftware,KiCad,Pcbnew,8.0.3*%
%TF.CreationDate,2024-06-19T22:00:40+12:00*%
%TF.ProjectId,OperationBaldr,4f706572-6174-4696-9f6e-42616c64722e,0.1.0*%
%TF.SameCoordinates,Original*%
%TF.FileFunction,Legend,Bot*%
%TF.FilePolarity,Positive*%
%FSLAX46Y46*%
G04 Gerber Fmt 4.6, Leading zero omitted, Abs format (unit mm)*
G04 Created by KiCad (PCBNEW 8.0.3) date 2024-06-19 22:00:40*
%MOMM*%
%LPD*%
G01*
G04 APERTURE LIST*
%ADD10C,0.120000*%
G04 APERTURE END LIST*
D10*
%TO.C,J2*%
X130855000Y-57070000D02*
X136855000Y-57070000D01*
X130855000Y-57130000D02*
X136855000Y-57130000D01*
X130855000Y-57250000D02*
X136855000Y-57250000D01*
X130855000Y-57370000D02*
X136855000Y-57370000D01*
X130855000Y-57490000D02*
X136855000Y-57490000D01*
X130855000Y-57610000D02*
X136855000Y-57610000D01*
X130855000Y-57730000D02*
X136855000Y-57730000D01*
X130855000Y-57830000D02*
X130855000Y-57070000D01*
X130855000Y-59610000D02*
X136855000Y-59610000D01*
X130855000Y-60370000D02*
X130855000Y-59610000D01*
X130855000Y-62150000D02*
X136855000Y-62150000D01*
X130855000Y-62910000D02*
X130855000Y-62150000D01*
X130855000Y-64690000D02*
X136855000Y-64690000D01*
X130855000Y-65450000D02*
X130855000Y-64690000D01*
X136855000Y-56120000D02*
X136855000Y-66400000D01*
X136855000Y-57830000D02*
X130855000Y-57830000D01*
X136855000Y-58720000D02*
X139515000Y-58720000D01*
X136855000Y-60370000D02*
X130855000Y-60370000D01*
X136855000Y-61260000D02*
X139515000Y-61260000D01*
X136855000Y-62910000D02*
X130855000Y-62910000D01*
X136855000Y-63800000D02*
X139515000Y-63800000D01*
X136855000Y-65450000D02*
X130855000Y-65450000D01*
X136855000Y-66400000D02*
X139515000Y-66400000D01*
X139515000Y-56120000D02*
X136855000Y-56120000D01*
X139515000Y-57070000D02*
X139845000Y-57070000D01*
X139515000Y-57830000D02*
X139845000Y-57830000D01*
X139515000Y-59610000D02*
X139912071Y-59610000D01*
X139515000Y-60370000D02*
X139912071Y-60370000D01*
X139515000Y-62150000D02*
X139912071Y-62150000D01*
X139515000Y-62910000D02*
X139912071Y-62910000D01*
X139515000Y-64690000D02*
X139912071Y-64690000D01*
X139515000Y-65450000D02*
X139912071Y-65450000D01*
X139515000Y-66400000D02*
X139515000Y-56120000D01*
X140955000Y-56180000D02*
X142225000Y-56180000D01*
X142225000Y-56180000D02*
X142225000Y-57450000D01*
%TD*%
M02*
