%TF.GenerationSoftware,KiCad,Pcbnew,8.0.3*%
%TF.CreationDate,2024-06-19T22:00:40+12:00*%
%TF.ProjectId,OperationBaldr,4f706572-6174-4696-9f6e-42616c64722e,0.1.0*%
%TF.SameCoordinates,Original*%
%TF.FileFunction,Soldermask,Top*%
%TF.FilePolarity,Negative*%
%FSLAX46Y46*%
G04 Gerber Fmt 4.6, Leading zero omitted, Abs format (unit mm)*
G04 Created by KiCad (PCBNEW 8.0.3) date 2024-06-19 22:00:40*
%MOMM*%
%LPD*%
G01*
G04 APERTURE LIST*
%ADD10C,1.700000*%
%ADD11C,3.200000*%
%ADD12R,1.600000X1.600000*%
%ADD13O,1.600000X1.600000*%
%ADD14C,1.600000*%
%ADD15R,1.700000X1.700000*%
%ADD16O,1.700000X1.700000*%
G04 APERTURE END LIST*
D10*
%TO.C,U2*%
X188740000Y-53650000D03*
X186200000Y-53650000D03*
X183660000Y-53650000D03*
X181120000Y-53650000D03*
X178580000Y-53650000D03*
X176040000Y-53650000D03*
X173500000Y-53650000D03*
X170960000Y-53650000D03*
X168420000Y-53650000D03*
X165880000Y-53650000D03*
X163340000Y-53650000D03*
X160800000Y-53650000D03*
X158260000Y-53650000D03*
X155720000Y-53650000D03*
X153180000Y-53650000D03*
X150640000Y-53650000D03*
X148100000Y-53650000D03*
X145560000Y-53650000D03*
X143020000Y-53650000D03*
X140480000Y-53650000D03*
X140480000Y-68890000D03*
X143020000Y-68890000D03*
X145560000Y-68890000D03*
X148100000Y-68890000D03*
X150640000Y-68890000D03*
X153180000Y-68890000D03*
X155720000Y-68890000D03*
X158260000Y-68890000D03*
X160800000Y-68890000D03*
X163340000Y-68890000D03*
X165880000Y-68890000D03*
X168420000Y-68890000D03*
X170960000Y-68890000D03*
X173500000Y-68890000D03*
X176040000Y-68890000D03*
X178580000Y-68890000D03*
X181120000Y-68890000D03*
X183660000Y-68890000D03*
X186200000Y-68890000D03*
X188740000Y-68890000D03*
X144290000Y-57460000D03*
X144290000Y-60000000D03*
X144290000Y-62540000D03*
X144290000Y-65080000D03*
%TD*%
D11*
%TO.C,H1*%
X115000000Y-46000000D03*
%TD*%
D12*
%TO.C,U4*%
X116830000Y-119200000D03*
D13*
X119370000Y-119200000D03*
X121910000Y-119200000D03*
X124450000Y-119200000D03*
X126990000Y-119200000D03*
X129530000Y-119200000D03*
X132070000Y-119200000D03*
X134610000Y-119200000D03*
X134610000Y-111580000D03*
X132070000Y-111580000D03*
X129530000Y-111580000D03*
X126990000Y-111580000D03*
X124450000Y-111580000D03*
X121910000Y-111580000D03*
X119370000Y-111580000D03*
X116830000Y-111580000D03*
%TD*%
D11*
%TO.C,H2*%
X187000000Y-46000000D03*
%TD*%
D14*
%TO.C,U10*%
X119380000Y-98425000D03*
X121920000Y-98425000D03*
X124460000Y-98425000D03*
X127000000Y-98425000D03*
X129540000Y-98425000D03*
X132080000Y-98425000D03*
X134620000Y-98425000D03*
X137160000Y-98425000D03*
X139700000Y-98425000D03*
X142240000Y-98425000D03*
X144780000Y-98425000D03*
X147320000Y-98425000D03*
X149860000Y-98425000D03*
X152400000Y-98425000D03*
X154940000Y-98425000D03*
X157480000Y-98425000D03*
X160020000Y-98425000D03*
X162560000Y-98425000D03*
X165100000Y-98425000D03*
X167640000Y-98425000D03*
X170180000Y-98425000D03*
X172720000Y-98425000D03*
X175260000Y-98425000D03*
X177800000Y-98425000D03*
X180340000Y-98425000D03*
X182880000Y-98425000D03*
%TD*%
%TO.C,R1*%
X125400000Y-69710000D03*
D13*
X135560000Y-69710000D03*
%TD*%
D12*
%TO.C,U8*%
X185410000Y-124200000D03*
D13*
X182870000Y-124200000D03*
X180330000Y-124200000D03*
X177790000Y-124200000D03*
X175250000Y-124200000D03*
X172710000Y-124200000D03*
X170170000Y-124200000D03*
X167630000Y-124200000D03*
X167630000Y-131820000D03*
X170170000Y-131820000D03*
X172710000Y-131820000D03*
X175250000Y-131820000D03*
X177790000Y-131820000D03*
X180330000Y-131820000D03*
X182870000Y-131820000D03*
X185410000Y-131820000D03*
%TD*%
D10*
%TO.C,U3*%
X135260000Y-54330000D03*
X132720000Y-54330000D03*
X130180000Y-54330000D03*
X127640000Y-54330000D03*
X125100000Y-54330000D03*
%TD*%
D11*
%TO.C,H3*%
X115000000Y-138000000D03*
%TD*%
D12*
%TO.C,RN3*%
X115555000Y-107200000D03*
D13*
X118095000Y-107200000D03*
X120635000Y-107200000D03*
X123175000Y-107200000D03*
X125715000Y-107200000D03*
X128255000Y-107200000D03*
X130795000Y-107200000D03*
X133335000Y-107200000D03*
X135875000Y-107200000D03*
%TD*%
D12*
%TO.C,U5*%
X142230000Y-119200000D03*
D13*
X144770000Y-119200000D03*
X147310000Y-119200000D03*
X149850000Y-119200000D03*
X152390000Y-119200000D03*
X154930000Y-119200000D03*
X157470000Y-119200000D03*
X160010000Y-119200000D03*
X160010000Y-111580000D03*
X157470000Y-111580000D03*
X154930000Y-111580000D03*
X152390000Y-111580000D03*
X149850000Y-111580000D03*
X147310000Y-111580000D03*
X144770000Y-111580000D03*
X142230000Y-111580000D03*
%TD*%
D12*
%TO.C,RN1*%
X166355000Y-107200000D03*
D13*
X168895000Y-107200000D03*
X171435000Y-107200000D03*
X173975000Y-107200000D03*
X176515000Y-107200000D03*
X179055000Y-107200000D03*
X181595000Y-107200000D03*
X184135000Y-107200000D03*
X186675000Y-107200000D03*
%TD*%
D12*
%TO.C,U6*%
X134610000Y-124200000D03*
D13*
X132070000Y-124200000D03*
X129530000Y-124200000D03*
X126990000Y-124200000D03*
X124450000Y-124200000D03*
X121910000Y-124200000D03*
X119370000Y-124200000D03*
X116830000Y-124200000D03*
X116830000Y-131820000D03*
X119370000Y-131820000D03*
X121910000Y-131820000D03*
X124450000Y-131820000D03*
X126990000Y-131820000D03*
X129530000Y-131820000D03*
X132070000Y-131820000D03*
X134610000Y-131820000D03*
%TD*%
D10*
%TO.C,U1*%
X118255000Y-70210000D03*
X121605000Y-70210000D03*
X121605000Y-52310000D03*
X113215000Y-52310000D03*
%TD*%
D12*
%TO.C,U7*%
X160340000Y-124400000D03*
D13*
X157800000Y-124400000D03*
X155260000Y-124400000D03*
X152720000Y-124400000D03*
X150180000Y-124400000D03*
X147640000Y-124400000D03*
X145100000Y-124400000D03*
X142560000Y-124400000D03*
X142560000Y-132020000D03*
X145100000Y-132020000D03*
X147640000Y-132020000D03*
X150180000Y-132020000D03*
X152720000Y-132020000D03*
X155260000Y-132020000D03*
X157800000Y-132020000D03*
X160340000Y-132020000D03*
%TD*%
D11*
%TO.C,H4*%
X187000000Y-138000000D03*
%TD*%
D12*
%TO.C,U9*%
X167630000Y-119200000D03*
D13*
X170170000Y-119200000D03*
X172710000Y-119200000D03*
X175250000Y-119200000D03*
X177790000Y-119200000D03*
X180330000Y-119200000D03*
X182870000Y-119200000D03*
X185410000Y-119200000D03*
X185410000Y-111580000D03*
X182870000Y-111580000D03*
X180330000Y-111580000D03*
X177790000Y-111580000D03*
X175250000Y-111580000D03*
X172710000Y-111580000D03*
X170170000Y-111580000D03*
X167630000Y-111580000D03*
%TD*%
D12*
%TO.C,RN2*%
X140955000Y-107200000D03*
D13*
X143495000Y-107200000D03*
X146035000Y-107200000D03*
X148575000Y-107200000D03*
X151115000Y-107200000D03*
X153655000Y-107200000D03*
X156195000Y-107200000D03*
X158735000Y-107200000D03*
X161275000Y-107200000D03*
%TD*%
D15*
%TO.C,J1*%
X181100000Y-48710000D03*
D16*
X178560000Y-48710000D03*
X176020000Y-48710000D03*
X173480000Y-48710000D03*
X170940000Y-48710000D03*
X168400000Y-48710000D03*
X165860000Y-48710000D03*
X163320000Y-48710000D03*
X160780000Y-48710000D03*
X158240000Y-48710000D03*
%TD*%
D15*
%TO.C,J2*%
X140955000Y-57450000D03*
D16*
X140955000Y-59990000D03*
X140955000Y-62530000D03*
X140955000Y-65070000D03*
%TD*%
M02*
